<svg width="24" height="25" viewBox="0 0 24 25" fill="none" xmlns="http://www.w3.org/2000/svg">
<path d="M22 22.0911H2C1.59 22.0911 1.25 21.7511 1.25 21.3411C1.25 20.9311 1.59 20.5911 2 20.5911H22C22.41 20.5911 22.75 20.9311 22.75 21.3411C22.75 21.7511 22.41 22.0911 22 22.0911Z" fill="white"/>
<path d="M9.75 4.09106V22.0911H14.25V4.09106C14.25 2.99106 13.8 2.09106 12.45 2.09106H11.55C10.2 2.09106 9.75 2.99106 9.75 4.09106Z" fill="white"/>
<path opacity="0.4" d="M3 10.0911V22.0911H7V10.0911C7 8.99106 6.6 8.09106 5.4 8.09106H4.6C3.4 8.09106 3 8.99106 3 10.0911Z" fill="white"/>
<path opacity="0.4" d="M17 15.0911V22.0911H21V15.0911C21 13.9911 20.6 13.0911 19.4 13.0911H18.6C17.4 13.0911 17 13.9911 17 15.0911Z" fill="white"/>
</svg>
