<svg width="24" height="25" viewBox="0 0 24 25" fill="none" xmlns="http://www.w3.org/2000/svg">
<path d="M7.23939 2.66199H5.33939C3.14939 2.66199 1.99939 3.81199 1.99939 5.99199V7.89199C1.99939 10.072 3.14939 11.222 5.32939 11.222H7.22939C9.40939 11.222 10.5594 10.072 10.5594 7.89199V5.99199C10.5694 3.81199 9.41939 2.66199 7.23939 2.66199Z" fill="white" fill-opacity="0.4"/>
<path opacity="0.4" d="M18.6705 2.66199H16.7705C14.5905 2.66199 13.4405 3.81199 13.4405 5.99199V7.89199C13.4405 10.072 14.5905 11.222 16.7705 11.222H18.6705C20.8505 11.222 22.0005 10.072 22.0005 7.89199V5.99199C22.0005 3.81199 20.8505 2.66199 18.6705 2.66199Z" fill="white" fill-opacity="0.4"/>
<path d="M18.6705 14.0923H16.7705C14.5905 14.0923 13.4405 15.2423 13.4405 17.4223V19.3223C13.4405 21.5023 14.5905 22.6523 16.7705 22.6523H18.6705C20.8505 22.6523 22.0005 21.5023 22.0005 19.3223V17.4223C22.0005 15.2423 20.8505 14.0923 18.6705 14.0923Z" fill="white" fill-opacity="0.4"/>
<path opacity="0.4" d="M7.23939 14.0923H5.33939C3.14939 14.0923 1.99939 15.2423 1.99939 17.4223V19.3223C1.99939 21.5123 3.14939 22.6623 5.32939 22.6623H7.22939C9.40939 22.6623 10.5594 21.5123 10.5594 19.3323V17.4323C10.5694 15.2423 9.41939 14.0923 7.23939 14.0923Z" fill="white" fill-opacity="0.4"/>
</svg>
