<svg width="855" height="361" viewBox="0 0 855 361" fill="none" xmlns="http://www.w3.org/2000/svg">
    <g clip-path="url(#clip0_0_1)">
        <path opacity="0.1"
            d="M0 285.289H149.646V340.093H212.671V285.289H251.338V232.464H212.671V28.3184H130.16L0 233.377V285.289ZM150.864 232.464H66.3739V230.028L148.428 100.173H150.864V232.464Z"
            fill="#232323" />
        <path opacity="0.1"
            d="M426.075 346.944C504.475 346.944 551.82 287.268 551.972 184.51C552.124 82.5137 504.171 24.0559 426.075 24.0559C347.827 24.0559 300.33 82.3614 300.178 184.51C299.873 286.964 347.522 346.792 426.075 346.944ZM426.075 292.292C390.3 292.292 367.16 256.365 367.313 184.51C367.465 113.722 390.452 78.0989 426.075 78.0989C461.545 78.0989 484.685 113.722 484.685 184.51C484.837 256.365 461.698 292.292 426.075 292.292Z"
            fill="#232323" />
        <path opacity="0.1"
            d="M602.829 285.289H752.475V340.093H815.5V285.289H854.167V232.464H815.5V28.3184H732.989L602.829 233.377V285.289ZM753.693 232.464H669.203V230.028L751.257 100.173H753.693V232.464Z"
            fill="#232323" />
    </g>
    <path
        d="M262.183 351.543C262.183 351.543 208.985 308.612 215.243 263.551C221.502 218.49 272.615 256.039 285.131 215.271C297.648 174.503 251.507 121.232 293.352 84.053C335.197 46.874 373.794 82.2556 399.869 74.7437C425.945 67.2318 423.86 9.27744 483.316 8.20431C542.772 7.13118 592.087 43.6123 570.027 148.219C547.967 252.825 615.787 264.624 625.177 302.173C634.567 339.722 611.449 352.822 611.449 352.822L262.183 351.543Z"
        fill="#D31C5B" />
    <path opacity="0.7"
        d="M262.183 351.543C262.183 351.543 208.985 308.612 215.243 263.551C221.502 218.49 272.615 256.039 285.131 215.271C297.648 174.503 251.507 121.232 293.352 84.053C335.197 46.874 373.794 82.2556 399.869 74.7437C425.945 67.2318 423.86 9.27744 483.316 8.20431C542.772 7.13118 592.087 43.6123 570.027 148.219C547.967 252.825 615.787 264.624 625.177 302.173C634.567 339.722 611.449 352.822 611.449 352.822L262.183 351.543Z"
        fill="white" />
    <g opacity="0.15">
        <path
            d="M474.736 219.643C472.091 222.244 464.245 225.003 464.24 225.003C464.235 225.003 463.965 219.289 463.997 218.919C464.335 214.69 467.472 206.76 472.091 205.666C475.445 204.889 478.386 207.379 478.799 210.624C479.211 213.87 477 217.423 474.736 219.643Z"
            fill="black" />
        <path
            d="M470.038 325.111C470.07 325.301 470.112 325.476 470.144 325.64L467.679 327.913C467.546 327.157 467.404 326.385 467.271 325.592C466.885 323.351 466.515 320.94 466.15 318.461C463.763 318.428 461.379 318.251 459.013 317.932C457.67 321.252 452.972 326.348 452.364 326.998C453.892 328.637 455.4 330.212 456.85 331.687C457.844 332.702 458.802 333.67 459.743 334.595L456.802 335.721C456.135 335.049 455.495 334.378 454.824 333.606C453.263 331.952 451.618 330.149 449.951 328.278C449.19 328.775 442.9 332.76 439.45 333.257C436.319 333.707 432.203 333.416 429.828 331.058C427.452 328.701 427.315 324.889 429.949 322.716C433.61 319.708 441.842 322.05 445.386 324.302C445.592 324.434 447.714 326.152 449.036 327.257C448.364 326.486 447.692 325.751 447.021 324.952C445.677 323.367 444.338 321.781 442.91 320.057C442.251 319.201 441.579 318.336 440.895 317.462C440.223 316.611 439.598 315.622 438.937 314.697C437.445 312.519 436.044 310.246 434.705 307.92C433.319 309.115 428.357 313.285 425.31 314.205C422.263 315.125 418.179 315.458 415.465 313.492C412.751 311.525 412.042 307.772 414.317 305.224C417.491 301.693 425.955 302.739 429.838 304.447C430.082 304.552 432.716 306.101 434.155 306.974C433.34 305.573 432.531 304.172 431.758 302.744C429.537 298.568 427.415 294.286 425.278 290.004L423.263 286.098C422.776 286.526 416.994 291.606 413.592 292.648C410.566 293.567 406.456 293.895 403.752 291.929C401.049 289.962 400.33 286.209 402.604 283.661C405.779 280.129 414.243 281.176 418.115 282.889C418.411 283.016 422.204 285.247 423.141 285.855C421.681 282.989 420.2 280.14 418.618 277.396C416.514 273.669 414.167 270.085 411.592 266.665C411.365 266.866 405.361 272.2 401.874 273.257C398.843 274.177 394.738 274.51 392.029 272.544C389.321 270.577 388.607 266.829 390.887 264.281C394.061 260.744 402.525 261.786 406.403 263.499C406.704 263.636 410.783 266.036 411.492 266.517C411.339 266.322 411.212 266.105 411.058 265.909C408.395 262.554 405.437 259.443 402.218 256.616C400.462 255.03 398.69 253.618 396.928 252.276C395.912 253.381 391.209 258.397 388.205 259.677C385.3 260.924 381.248 261.691 378.344 260.047C375.44 258.403 374.313 254.734 376.328 251.953C379.079 248.099 387.628 248.2 391.67 249.479C391.892 249.553 394.045 250.505 395.606 251.224C394.764 250.679 393.966 250.045 393.177 249.516C390.257 247.439 387.453 245.715 384.962 244.203C383.533 243.363 382.232 242.617 381 241.946C379.412 242.517 373.101 244.721 369.864 244.489C366.626 244.256 362.759 243.077 360.939 240.26C359.119 237.442 359.812 233.694 362.854 232.14C367.086 229.978 374.614 234.011 377.614 237.009C377.873 237.262 381.449 241.766 381.365 241.809L381.275 241.84C382.465 242.464 383.74 243.183 385.115 243.955C387.655 245.409 390.485 247.074 393.479 249.099C396.709 251.246 399.812 253.578 402.774 256.082C406.102 258.874 409.173 261.958 411.952 265.296C411.984 265.333 412.01 265.375 412.042 265.418C411.513 264.128 410.191 260.48 410.127 260.195C409.133 256.077 409.635 247.55 413.682 245.081C416.592 243.299 420.189 244.737 421.617 247.698C423.046 250.658 422.003 254.692 420.559 257.499C418.93 260.67 412.857 265.428 412.37 265.825C415.116 269.29 417.627 272.936 419.887 276.736C421.231 278.94 422.485 281.203 423.733 283.486C423.321 282.36 422.956 281.372 422.924 281.203C421.929 277.09 422.432 268.563 426.479 266.089C429.389 264.313 432.996 265.751 434.414 268.706C435.832 271.661 434.8 275.705 433.356 278.507C431.912 281.308 426.786 285.537 425.421 286.632C425.886 287.509 426.368 288.392 426.833 289.275C429.066 293.504 431.272 297.733 433.541 301.846C434.345 303.289 435.192 304.674 436.038 306.075C435.77 305.421 435.545 304.75 435.366 304.066C434.372 299.953 434.88 291.426 438.921 288.952C441.842 287.171 445.439 288.614 446.857 291.564C448.274 294.514 447.237 298.563 445.799 301.375C444.36 304.188 439.731 307.957 438.075 309.252C438.985 310.653 439.889 312.059 440.836 313.381C441.503 314.269 442.074 315.157 442.794 316.024L444.809 318.572C446.148 320.158 447.571 321.775 448.941 323.266C449.888 324.323 450.803 325.275 451.734 326.29C450.914 324.868 449.364 322.034 449.264 321.786C447.974 318.288 447.606 314.518 448.195 310.838C448.032 310.455 447.91 310.057 447.83 309.648C447.158 306.445 449.137 303.12 452.522 302.776C457.22 302.279 462.833 308.75 464.542 312.619C464.642 312.847 465.462 315.442 465.954 317.092C465.816 316.082 465.663 315.083 465.536 314.057C465.261 311.99 465.044 309.923 464.806 307.714C464.732 306.656 464.647 305.557 464.568 304.457C464.489 303.358 464.505 302.205 464.462 301.069C464.42 298.426 464.51 295.782 464.658 293.065C462.854 293.308 456.416 294.048 453.369 293.144C450.322 292.241 446.735 290.221 445.55 287.092C444.365 283.962 445.857 280.431 449.158 279.564C453.739 278.359 460.267 283.904 462.531 287.493C462.674 287.715 464.018 290.454 464.732 291.976C464.833 290.39 464.928 288.746 465.086 287.113C465.536 282.418 466.144 277.645 466.716 272.898C466.901 271.439 467.06 269.99 467.245 268.542C466.573 268.632 458.971 269.684 455.564 268.669C452.528 267.77 448.92 265.782 447.745 262.637C446.571 259.492 448.047 255.976 451.353 255.114C455.94 253.904 462.463 259.449 464.721 263.018C464.896 263.287 466.837 267.247 467.271 268.262C467.642 265.063 467.943 261.87 468.176 258.714C468.472 254.45 468.488 250.172 468.223 245.906C467.927 245.953 459.971 247.084 456.474 246.054C453.448 245.15 449.84 243.162 448.666 240.022C447.491 236.882 448.967 233.366 452.268 232.494C456.855 231.289 463.378 236.839 465.642 240.424C465.822 240.704 467.896 244.954 468.218 245.747V244.996C467.832 240.726 467.07 236.499 465.943 232.362C465.351 230.068 464.653 227.911 463.928 225.833C462.468 226.193 455.776 227.784 452.522 227.176C449.417 226.61 445.603 225.03 444.095 222.043C442.587 219.056 443.667 215.393 446.851 214.172C451.274 212.469 458.352 217.269 461.008 220.563C461.156 220.743 462.425 222.72 463.325 224.184C462.981 223.243 462.653 222.27 462.304 221.382C461.018 218.025 459.622 215.039 458.389 212.422C457.664 210.931 456.977 209.599 456.326 208.357C454.707 207.971 448.206 206.316 445.645 204.334C443.085 202.351 440.493 199.248 440.524 195.902C440.556 192.556 443.201 189.78 446.608 190.14C451.306 190.668 455.384 198.186 456.231 202.33C456.299 202.69 456.797 208.425 456.707 208.404H456.612C457.283 209.583 457.955 210.857 458.669 212.269C460.008 214.875 461.426 217.84 462.796 221.165C464.305 224.736 465.604 228.391 466.684 232.113C467.922 236.275 468.784 240.539 469.26 244.854V245.007C469.546 243.664 470.445 239.869 470.551 239.588C471.995 235.613 477.122 228.773 481.856 228.942C485.274 229.069 487.48 232.256 487.03 235.491C486.58 238.727 483.48 241.528 480.724 243.083C477.608 244.827 469.906 245.472 469.313 245.514C469.695 249.92 469.778 254.346 469.562 258.762C469.456 261.326 469.271 263.916 469.033 266.512C469.308 265.338 469.562 264.297 469.615 264.159C471.059 260.173 476.185 253.343 480.92 253.507C484.337 253.64 486.543 256.822 486.094 260.062C485.644 263.303 482.581 266.094 479.798 267.648C477.016 269.203 470.403 269.895 468.689 270.054C468.589 271.053 468.509 272.062 468.409 273.035C467.933 277.793 467.43 282.551 467.065 287.229C466.949 288.873 466.885 290.501 466.816 292.129C467.065 291.072 467.282 290.221 467.345 290.121C468.79 286.145 473.921 279.305 478.656 279.479C482.068 279.601 484.274 282.783 483.824 286.029C483.374 289.275 480.28 292.066 477.524 293.615C474.767 295.164 468.8 295.793 466.732 295.989V300.947C466.795 302.057 466.779 303.12 466.906 304.23C467.033 305.34 467.118 306.408 467.218 307.486C467.483 309.543 467.747 311.678 468.065 313.687C468.271 315.083 468.499 316.41 468.731 317.752C468.832 316.108 469.102 312.9 469.155 312.63C469.98 308.485 474.016 300.947 478.724 300.397C482.078 300.001 484.766 302.819 484.824 306.091C484.882 309.363 482.242 312.604 479.745 314.549C477 316.663 469.779 318.45 468.879 318.662C469.222 320.931 469.608 323.081 470.038 325.111Z"
            fill="black" />
        <path
            d="M396.785 251.409C396.727 251.477 393.426 246.783 393.214 246.471C391.199 242.771 389.4 234.397 392.648 230.956C394.992 228.466 398.843 228.91 400.991 231.384C403.139 233.858 403.213 238.029 402.578 241.116C401.784 244.759 396.785 251.403 396.785 251.409Z"
            fill="black" />
    </g>
    <g opacity="0.15">
        <path
            d="M544.852 93.7641C547.047 95.9262 553.575 98.2522 553.575 98.2522C553.575 98.2522 553.802 93.4945 553.776 93.1932C553.496 89.6936 550.888 83.0909 547.068 82.1923C546.469 82.0686 545.852 82.064 545.251 82.1788C544.651 82.2935 544.078 82.5254 543.568 82.8612C543.057 83.197 542.617 83.6301 542.274 84.1357C541.93 84.6414 541.69 85.2097 541.566 85.8081C541.535 85.972 541.508 86.1359 541.492 86.2998C541.111 89.0592 542.979 91.9192 544.852 93.7641Z"
            fill="black" />
        <path
            d="M548.793 181.322C548.776 181.478 548.746 181.632 548.703 181.782L550.75 183.669C550.866 183.035 550.972 182.401 551.089 181.745C551.411 179.874 551.718 177.875 552.02 175.824C554.003 175.793 555.984 175.644 557.95 175.38C559.05 178.15 562.991 182.379 563.473 182.908C562.198 184.251 560.944 185.588 559.77 186.804C558.944 187.65 558.146 188.448 557.368 189.22L559.812 190.15L561.452 188.422C562.753 187.047 564.139 185.541 565.478 183.992C566.118 184.404 571.339 187.692 574.201 188.131C576.799 188.501 580.243 188.258 582.195 186.302C583.104 185.467 583.644 184.305 583.697 183.072C583.749 181.839 583.31 180.635 582.475 179.726C582.364 179.604 582.245 179.49 582.121 179.382C579.079 176.882 572.244 178.795 569.281 180.725C569.107 180.836 567.35 182.258 566.25 183.178C566.816 182.538 567.366 181.93 567.938 181.264C569.075 179.964 570.17 178.621 571.355 177.193L573.016 175.042C573.588 174.339 574.074 173.514 574.646 172.748C575.878 170.94 577.042 169.047 578.174 167.118C579.317 168.112 583.427 171.569 585.956 172.341C588.485 173.112 591.881 173.398 594.129 171.743C594.638 171.394 595.073 170.948 595.409 170.431C595.745 169.914 595.976 169.336 596.088 168.73C596.201 168.123 596.193 167.501 596.064 166.898C595.936 166.295 595.69 165.723 595.341 165.215C595.261 165.097 595.174 164.984 595.081 164.876C592.436 161.948 585.406 162.815 582.195 164.205C581.994 164.3 579.804 165.579 578.613 166.319C579.28 165.156 579.952 163.993 580.623 162.793C582.475 159.32 584.231 155.752 585.993 152.194C586.522 151.105 587.088 150.027 587.638 148.948C588.04 149.303 592.844 153.526 595.69 154.388C598.197 155.149 601.615 155.445 603.863 153.796C604.371 153.447 604.806 153 605.141 152.483C605.477 151.966 605.707 151.388 605.819 150.781C605.931 150.175 605.923 149.553 605.794 148.95C605.665 148.347 605.419 147.775 605.069 147.267C604.99 147.151 604.905 147.04 604.815 146.929C602.17 143.995 595.145 144.857 591.929 146.258C591.69 146.369 588.538 148.219 587.755 148.721C588.971 146.342 590.199 143.963 591.505 141.701C593.25 138.612 595.194 135.64 597.324 132.804C597.51 132.968 602.504 137.403 605.376 138.281C607.884 139.047 611.301 139.338 613.549 137.689C614.057 137.348 614.491 136.91 614.829 136.401C615.167 135.892 615.401 135.322 615.518 134.722C615.635 134.123 615.632 133.506 615.511 132.907C615.389 132.309 615.15 131.74 614.808 131.234C614.715 131.092 614.613 130.956 614.502 130.827C611.857 127.888 604.831 128.755 601.62 130.155C601.361 130.261 597.975 132.27 597.388 132.661C597.515 132.492 597.631 132.312 597.758 132.133C599.979 129.343 602.449 126.762 605.138 124.42C606.603 123.077 608.074 121.925 609.534 120.814C610.375 121.729 614.295 125.895 616.803 126.973C619.215 128.03 622.58 128.659 624.997 127.285C626.089 126.693 626.901 125.693 627.257 124.505C627.613 123.316 627.483 122.035 626.896 120.941C626.833 120.82 626.764 120.709 626.69 120.592C624.405 117.389 617.3 117.474 613.941 118.541C613.761 118.594 611.973 119.392 610.677 119.99C611.349 119.493 612.015 118.98 612.687 118.515C615.11 116.792 617.448 115.343 619.511 114.111C620.691 113.44 621.781 112.769 622.802 112.235C624.103 112.7 629.362 114.534 632.049 114.349C634.736 114.164 637.953 113.181 639.455 110.85C639.804 110.341 640.049 109.769 640.176 109.165C640.303 108.562 640.309 107.94 640.195 107.334C640.081 106.728 639.849 106.15 639.511 105.634C639.174 105.118 638.738 104.674 638.228 104.326C638.112 104.247 637.99 104.173 637.868 104.104C634.356 102.312 628.097 105.659 625.611 108.127C625.399 108.339 622.437 112.087 622.495 112.15H622.574C621.58 112.679 620.522 113.234 619.4 113.884C617.284 115.095 614.93 116.48 612.465 118.155C609.78 119.943 607.201 121.884 604.741 123.97C601.972 126.295 599.412 128.858 597.092 131.63L597.012 131.736C597.446 130.679 598.547 127.634 598.599 127.391C599.425 123.976 599.012 116.892 595.647 114.841C594.562 114.231 593.279 114.076 592.079 114.411C590.88 114.746 589.863 115.544 589.252 116.628C589.183 116.755 589.119 116.881 589.061 117.014C587.86 119.519 588.744 122.829 589.95 125.149C591.294 127.792 596.356 131.757 596.758 132.069C594.476 134.94 592.386 137.958 590.5 141.104C589.4 142.933 588.347 144.804 587.326 146.718C587.67 145.777 587.998 144.941 587.998 144.809C588.823 141.4 588.4 134.316 585.046 132.265C583.961 131.655 582.677 131.5 581.478 131.835C580.279 132.17 579.262 132.967 578.65 134.052C578.581 134.178 578.513 134.305 578.455 134.432C577.254 136.938 578.142 140.247 579.343 142.578C580.544 144.91 584.797 148.42 585.929 149.324C585.543 150.053 585.147 150.778 584.755 151.518C582.904 155.028 581.052 158.549 579.169 161.948C578.497 163.153 577.793 164.305 577.095 165.463C577.396 164.633 577.624 163.93 577.672 163.814C578.497 160.399 578.079 153.315 574.72 151.264C574.182 150.961 573.591 150.767 572.978 150.693C572.366 150.619 571.745 150.666 571.151 150.832C570.557 150.998 570.002 151.28 569.516 151.66C569.031 152.041 568.626 152.513 568.324 153.051C568.255 153.178 568.186 153.304 568.128 153.437C566.927 155.942 567.816 159.252 569.022 161.572C570.228 163.893 574.064 167.081 575.402 168.159C574.651 169.327 573.894 170.49 573.117 171.585C572.588 172.314 572.059 173.065 571.487 173.773L569.742 175.978C568.604 177.32 567.446 178.658 566.314 179.884C565.525 180.756 564.764 181.576 563.997 182.401C564.668 181.216 565.964 178.869 566.049 178.658C567.112 175.757 567.414 172.632 566.927 169.581C567.06 169.262 567.161 168.931 567.229 168.593C567.375 167.994 567.401 167.373 567.307 166.764C567.213 166.155 566.999 165.571 566.679 165.045C566.359 164.519 565.938 164.061 565.44 163.697C564.943 163.333 564.379 163.071 563.78 162.926C563.621 162.889 563.462 162.857 563.304 162.836C559.389 162.429 554.749 167.8 553.326 171.008C553.242 171.199 552.565 173.356 552.152 174.709C552.268 173.868 552.395 173.049 552.501 172.187C552.729 170.469 552.914 168.762 553.104 166.901C553.173 166.008 553.236 165.104 553.3 164.215C553.363 163.327 553.363 162.344 553.395 161.403C553.427 159.215 553.353 156.994 553.226 154.763C554.728 154.959 560.071 155.583 562.621 154.822C565.171 154.06 568.139 152.422 569.117 149.826C569.584 148.672 569.574 147.38 569.087 146.234C568.601 145.088 567.68 144.182 566.525 143.715C566.393 143.662 566.255 143.615 566.118 143.572C562.314 142.573 556.913 147.178 555.009 150.143C554.892 150.323 553.771 152.601 553.183 153.844C553.094 152.501 553.014 151.163 552.887 149.821C552.512 145.904 552.014 141.955 551.544 138.011C551.395 136.806 551.263 135.6 551.131 134.4C551.66 134.469 558.008 135.341 560.833 134.506C563.346 133.755 566.345 132.106 567.319 129.505C567.792 128.365 567.792 127.083 567.32 125.942C566.848 124.801 565.942 123.894 564.801 123.421C564.642 123.357 564.483 123.299 564.319 123.251C560.516 122.252 555.114 126.862 553.21 129.817C553.062 130.039 551.459 133.317 551.094 134.178C550.792 131.493 550.517 128.892 550.353 126.249C550.098 122.7 550.075 119.138 550.284 115.586C550.533 115.629 557.162 116.57 560.039 115.708C562.558 114.957 565.557 113.308 566.531 110.707C566.994 109.577 566.993 108.31 566.529 107.18C566.065 106.05 565.174 105.148 564.049 104.67C563.885 104.607 563.721 104.548 563.557 104.501C559.754 103.496 554.353 108.106 552.448 111.066C552.3 111.299 550.575 114.825 550.332 115.491V114.867C550.648 111.32 551.28 107.809 552.221 104.374C552.707 102.471 553.279 100.673 553.892 98.9395C555.104 99.2409 560.658 100.562 563.356 100.076C565.943 99.6109 569.107 98.2999 570.355 95.8153C570.651 95.2812 570.838 94.6942 570.906 94.0878C570.974 93.4813 570.922 92.8674 570.753 92.2811C570.583 91.6949 570.3 91.1477 569.918 90.6711C569.537 90.1945 569.065 89.7977 568.53 89.5034C568.382 89.4189 568.228 89.3447 568.07 89.2814C564.393 87.8646 558.548 91.8558 556.31 94.5677C556.194 94.721 555.136 96.3651 554.384 97.5757C554.67 96.7986 554.95 95.9898 555.236 95.2497C556.294 92.4743 557.453 90.0003 558.495 87.817C559.093 86.5748 559.659 85.4699 560.198 84.4602C561.537 84.143 566.948 82.7686 569.075 81.1087C571.202 79.4487 573.355 76.8796 573.307 74.1095C573.336 72.8783 572.874 71.6861 572.024 70.7943C571.175 69.9024 570.006 69.3837 568.774 69.3518C568.61 69.3518 568.446 69.3518 568.282 69.3518C564.367 69.7906 560.992 76.0602 560.288 79.4805C560.23 79.7765 559.828 84.5342 559.891 84.5236H559.971C559.442 85.5016 558.865 86.5325 558.267 87.7325C557.209 89.8999 555.977 92.358 554.839 95.1334C553.586 98.099 552.507 101.135 551.607 104.226C550.583 107.68 549.866 111.218 549.464 114.799C549.47 114.842 549.47 114.887 549.464 114.931C549.237 113.799 548.486 110.659 548.406 110.427C547.216 107.128 542.952 101.44 539.016 101.588C538.406 101.626 537.809 101.785 537.26 102.053C536.711 102.322 536.22 102.697 535.816 103.155C535.411 103.614 535.102 104.147 534.904 104.726C534.706 105.304 534.624 105.916 534.663 106.525C534.671 106.703 534.69 106.879 534.721 107.054C535.096 109.803 537.662 112.071 539.953 113.35C542.54 114.799 548.946 115.364 549.475 115.364C549.148 119.015 549.068 122.683 549.237 126.344C549.332 128.459 549.486 130.626 549.671 132.778C549.438 131.805 549.221 130.943 549.184 130.822C547.983 127.523 543.725 121.835 539.789 121.983C538.547 122.073 537.391 122.653 536.577 123.595C535.762 124.537 535.355 125.763 535.446 127.005C535.446 127.148 535.472 127.285 535.493 127.422C535.874 130.177 538.44 132.444 540.725 133.724C543.011 135.003 548.507 135.59 549.946 135.738C550.025 136.563 550.094 137.387 550.184 138.212C550.575 142.166 550.993 146.115 551.274 150C551.385 151.338 551.432 152.723 551.485 154.071C551.274 153.209 551.094 152.485 551.062 152.379C549.861 149.075 545.597 143.393 541.667 143.535C541.051 143.579 540.451 143.744 539.899 144.021C539.348 144.297 538.856 144.68 538.453 145.146C538.05 145.613 537.742 146.154 537.548 146.739C537.355 147.325 537.278 147.942 537.324 148.557C537.324 148.7 537.324 148.837 537.371 148.98C537.757 151.729 540.318 154.002 542.608 155.282C544.899 156.561 549.851 157.084 551.565 157.253V161.371C551.512 162.291 551.522 163.174 551.417 164.094C551.311 165.014 551.247 165.902 551.168 166.774C550.94 168.492 550.718 170.263 550.459 171.934C550.29 173.091 550.099 174.191 549.93 175.285C549.845 173.942 549.623 171.262 549.576 171.056C548.904 167.609 545.55 161.35 541.64 160.896C541.031 160.842 540.417 160.909 539.834 161.092C539.25 161.276 538.709 161.572 538.24 161.965C537.771 162.358 537.385 162.839 537.102 163.381C536.82 163.923 536.647 164.516 536.594 165.125C536.583 165.292 536.583 165.46 536.594 165.627C536.546 168.402 538.71 171.04 540.826 172.647C543.106 174.423 549.105 175.893 549.851 176.067C549.443 177.881 549.121 179.673 548.793 181.322Z"
            fill="black" />
        <path
            d="M609.603 120.148C609.651 120.201 612.423 116.305 612.571 116.046C614.269 112.97 615.745 106.002 613.042 103.158C612.168 102.286 610.983 101.796 609.749 101.796C608.514 101.796 607.329 102.286 606.455 103.158C606.334 103.28 606.223 103.406 606.117 103.533C604.292 105.648 604.271 109.052 604.815 111.621C605.45 114.619 609.603 120.143 609.603 120.148Z"
            fill="black" />
    </g>
    <path
        d="M358.977 303.802C358.977 303.802 333.24 301.523 309.556 308.332C306.202 309.307 302.944 310.587 299.822 312.154C290.237 316.912 262.421 329.641 238.652 329.641V335.985C238.652 335.985 272.557 333.87 292.987 321.527C297.651 318.715 302.689 316.579 307.953 315.183C324.598 310.895 341.845 309.426 358.977 310.838C358.565 308.51 358.565 306.129 358.977 303.802Z"
        fill="#232323" />
    <path
        d="M548.957 335.684C548.957 335.846 548.926 336.006 548.864 336.156C548.802 336.306 548.712 336.442 548.597 336.556C548.483 336.671 548.346 336.761 548.196 336.823C548.047 336.885 547.886 336.916 547.724 336.915H422.929C422.602 336.915 422.288 336.786 422.056 336.556C421.94 336.442 421.848 336.307 421.786 336.157C421.723 336.007 421.691 335.846 421.691 335.684C421.692 335.387 421.799 335.101 421.993 334.877C422.188 334.653 422.456 334.506 422.749 334.463L447.232 330.989L448.058 330.852C452.66 329.984 456.813 327.532 459.793 323.922C462.774 320.312 464.394 315.772 464.372 311.092V296.073L485.321 296.21L506.27 296.073V311.102C506.247 315.782 507.866 320.322 510.846 323.932C513.826 327.542 517.978 329.995 522.58 330.863L523.41 331L547.893 334.473C548.186 334.515 548.454 334.66 548.649 334.882C548.844 335.104 548.953 335.388 548.957 335.684Z"
        fill="#D31C5B" />
    <path opacity="0.2"
        d="M468.546 336.926C468.546 336.926 502.536 335.049 519.776 330.138C519.776 330.138 521.268 330.699 526.812 331.481L547.899 334.473C548.21 334.514 548.494 334.672 548.693 334.915C548.892 335.159 548.99 335.468 548.968 335.782C548.945 336.095 548.804 336.388 548.573 336.6C548.342 336.813 548.038 336.929 547.724 336.926H468.546Z"
        fill="white" />
    <path
        d="M562.589 304.494C562.589 304.494 626.659 306.514 627.658 322.404C627.658 322.404 629.425 337.571 590.294 336.926L533.018 336.741L551.681 330.466C551.681 330.466 609.259 334.235 620.294 325.18C620.601 324.935 620.845 324.622 621.008 324.266C621.171 323.909 621.248 323.52 621.232 323.128C621.217 322.737 621.11 322.354 620.919 322.012C620.729 321.669 620.46 321.377 620.136 321.157C616.248 318.514 603.615 313.899 562.589 311.303L556.733 304.494H562.589Z"
        fill="#232323" />
    <path
        d="M387.12 141.024L609.492 141.325C610.343 141.333 611.183 141.515 611.961 141.862C612.738 142.209 613.435 142.712 614.009 143.34C614.583 143.968 615.021 144.707 615.296 145.512C615.571 146.317 615.677 147.17 615.607 148.018L605.202 289.555C605.068 291.56 604.177 293.439 602.71 294.812C601.243 296.186 599.309 296.952 597.298 296.956L374.25 295.507C373.803 295.501 373.363 295.403 372.956 295.22C372.549 295.038 372.184 294.774 371.882 294.446C371.581 294.117 371.349 293.73 371.202 293.309C371.056 292.888 370.996 292.442 371.028 291.997L380.264 147.548C380.36 145.792 381.123 144.139 382.397 142.927C383.672 141.714 385.361 141.034 387.12 141.024Z"
        fill="#232323" />
    <path
        d="M384.777 141.008L607.148 141.326C607.991 141.33 608.824 141.507 609.596 141.847C610.367 142.186 611.06 142.681 611.632 143.3C612.205 143.918 612.643 144.648 612.921 145.444C613.199 146.239 613.31 147.083 613.248 147.923L602.852 287.483C602.704 289.472 601.805 291.33 600.338 292.682C598.871 294.034 596.945 294.78 594.949 294.767L371.9 293.308C371.457 293.306 371.019 293.214 370.613 293.036C370.207 292.859 369.842 292.6 369.539 292.276C369.237 291.952 369.004 291.57 368.855 291.153C368.706 290.736 368.645 290.293 368.673 289.851L377.899 147.4C378.021 145.662 378.8 144.035 380.076 142.848C381.353 141.662 383.033 141.004 384.777 141.008Z"
        fill="#D31C5B" />
    <path d="M383.232 146.696H608.069L598.107 288.423H374.694L383.232 146.696Z" fill="white" />
    <path
        d="M407.768 335.958C400.954 336.387 394.606 323.742 393.59 307.713C392.717 293.911 396.082 282.096 401.388 278.808L384.147 279.949C384.147 279.949 360.706 281.477 358.659 306.223C358.633 306.455 358.617 306.688 358.601 306.926C358.601 306.931 355.665 345.141 407.768 335.958Z"
        fill="#D31C5B" />
    <path opacity="0.1"
        d="M407.768 335.958C400.954 336.387 394.606 323.742 393.59 307.713C392.717 293.911 396.082 282.096 401.388 278.808L384.147 279.949C384.147 279.949 360.706 281.477 358.659 306.223C358.633 306.455 358.617 306.688 358.601 306.926C358.601 306.931 355.665 345.141 407.768 335.958Z"
        fill="black" />
    <path opacity="0.2"
        d="M368.689 330.318C368.689 330.318 355.533 313.433 364.187 298.436C364.187 298.436 373.138 284.57 393.453 285.643C393.453 285.643 382.946 316.441 400.774 336.921L407.768 335.932C407.768 335.932 397.679 338.485 393.59 307.687C393.59 307.687 392.32 287.07 401.388 278.781L384.147 279.923C384.147 279.923 360.87 279.664 358.601 306.884C358.601 306.931 357.374 321.257 368.689 330.318Z"
        fill="black" />
    <path
        d="M458.5 247.787V238.272H442.281V235.158L457.86 212.882H462.96V234.556H467.848V238.256H462.96V247.772L458.5 247.787ZM458.5 234.572V222.942C458.5 221.118 458.559 219.294 458.664 217.47H458.5C457.442 219.505 456.569 221.012 455.601 222.619L447.063 234.482V234.587L458.5 234.572Z"
        fill="#232323" />
    <path
        d="M494.595 229.956C494.595 241.819 490.194 248.369 482.46 248.369C475.635 248.369 471.017 241.983 470.911 230.443C470.911 218.739 475.958 212.3 483.047 212.3C490.405 212.311 494.595 218.855 494.595 229.956ZM475.635 230.485C475.635 239.556 478.428 244.705 482.724 244.705C487.559 244.705 489.871 239.07 489.871 230.163C489.871 221.572 487.665 215.937 482.777 215.937C478.645 215.958 475.635 221.007 475.635 230.485Z"
        fill="#232323" />
    <path
        d="M513.502 247.787V238.272H497.282V235.158L512.856 212.882H517.961V234.556H522.844V238.256H517.961V247.772L513.502 247.787ZM513.502 234.572V222.942C513.502 221.116 513.555 219.292 513.661 217.47H513.502C512.444 219.505 511.566 221.012 510.603 222.619L502.059 234.482V234.587L513.502 234.572Z"
        fill="#232323" />
    <path
        d="M513.396 335.504C520.21 335.932 526.558 323.287 527.574 307.259C528.446 293.456 525.082 281.641 519.776 278.353L537.017 279.495C537.017 279.495 560.457 281.023 562.504 305.768C562.504 306.001 562.547 306.233 562.563 306.471C562.563 306.476 565.499 344.67 513.396 335.504Z"
        fill="#D31C5B" />
    <path opacity="0.1"
        d="M513.396 335.504C520.21 335.932 526.558 323.287 527.574 307.259C528.446 293.456 525.082 281.641 519.776 278.353L537.017 279.495C537.017 279.495 560.457 281.023 562.504 305.768C562.504 306.001 562.547 306.233 562.563 306.471C562.563 306.476 565.499 344.67 513.396 335.504Z"
        fill="black" />
    <path opacity="0.2"
        d="M513.396 335.504C520.21 335.932 526.558 323.287 527.574 307.259C528.446 293.456 525.082 281.641 519.776 278.353L523.876 278.628C523.876 278.628 540.344 293.694 530.668 329.039C530.668 329.039 558.061 328.568 562.504 305.779C562.504 306.011 562.547 306.244 562.563 306.482C562.563 306.476 565.499 344.67 513.396 335.504Z"
        fill="black" />
    <path
        d="M527.574 307.259C526.558 323.287 520.21 335.932 513.396 335.504C506.582 335.076 501.88 321.728 502.895 305.699C503.911 289.671 510.259 277.026 517.073 277.454C518.035 277.523 518.965 277.832 519.776 278.353C525.082 281.641 528.447 293.456 527.574 307.259Z"
        fill="#D1D3D4" />
    <path
        d="M524.503 307.421C525.438 292.642 522.103 280.403 517.053 280.084C512.002 279.764 507.15 291.486 506.214 306.265C505.279 321.043 508.614 333.282 513.664 333.602C518.715 333.921 523.567 322.199 524.503 307.421Z"
        fill="#E6E7E8" />
    <path
        d="M512.371 312.294L491.796 311.684C489.051 311.602 486.759 313.76 486.678 316.503L486.678 316.509C486.596 319.252 488.755 321.542 491.501 321.623L512.075 322.233C514.821 322.315 517.112 320.157 517.194 317.414L517.194 317.408C517.275 314.665 515.116 312.375 512.371 312.294Z"
        fill="#232323" />
    <path
        d="M513.959 292.293L493.384 291.683C490.638 291.602 488.347 293.759 488.266 296.503L488.265 296.508C488.184 299.251 490.343 301.541 493.088 301.622L513.663 302.233C516.409 302.314 518.7 300.156 518.781 297.413L518.782 297.408C518.863 294.664 516.704 292.375 513.959 292.293Z"
        fill="#232323" />
    <g opacity="0.2">
        <path
            d="M512.371 312.294L491.796 311.684C489.051 311.602 486.76 313.76 486.678 316.503L486.678 316.508C486.597 319.252 488.756 321.541 491.501 321.623L512.076 322.233C514.821 322.314 517.113 320.157 517.194 317.413L517.194 317.408C517.276 314.665 515.116 312.375 512.371 312.294Z"
            fill="black" />
        <path
            d="M513.959 292.293L493.384 291.683C490.638 291.602 488.347 293.759 488.266 296.503L488.265 296.508C488.184 299.251 490.343 301.541 493.088 301.622L513.663 302.233C516.409 302.314 518.7 300.156 518.781 297.413L518.782 297.408C518.863 294.664 516.704 292.375 513.959 292.293Z"
            fill="black" />
    </g>
    <path
        d="M393.59 307.713C394.606 323.742 400.954 336.387 407.768 335.958C414.581 335.53 419.284 322.182 418.269 306.154C417.253 290.126 410.905 277.481 404.091 277.909C403.129 277.978 402.199 278.287 401.388 278.808C396.082 282.096 392.717 293.921 393.59 307.713Z"
        fill="#D1D3D4" />
    <path
        d="M406.869 335.365C411.929 335.062 415.31 322.812 414.421 308.003C413.532 293.195 408.709 281.437 403.649 281.74C398.589 282.044 395.207 294.294 396.096 309.102C396.985 323.91 401.808 335.669 406.869 335.365Z"
        fill="#E6E7E8" />
    <path
        d="M406.302 323.959C408.064 323.959 409.492 321.566 409.492 318.614C409.492 315.662 408.064 313.27 406.302 313.27C404.54 313.27 403.112 315.662 403.112 318.614C403.112 321.566 404.54 323.959 406.302 323.959Z"
        fill="#232323" />
    <path opacity="0.2"
        d="M405.266 313.566C405.266 313.566 408.149 316.769 406.324 323.959C406.324 323.959 409.26 324.048 409.498 318.614C409.492 318.614 409.397 312.286 405.266 313.566Z"
        fill="black" />
    <path
        d="M405.266 302.892C407.027 302.892 408.456 300.5 408.456 297.548C408.456 294.596 407.027 292.203 405.266 292.203C403.504 292.203 402.076 294.596 402.076 297.548C402.076 300.5 403.504 302.892 405.266 302.892Z"
        fill="#232323" />
    <path opacity="0.2"
        d="M404.229 292.499C404.229 292.499 407.112 295.703 405.287 302.898C405.287 302.898 408.217 302.988 408.461 297.548C408.455 297.548 408.36 291.22 404.229 292.499Z"
        fill="black" />
    <path
        d="M331.447 85.4804C330.587 84.0701 329.439 82.8576 328.077 81.9227C327.98 81.8666 327.87 81.8361 327.758 81.8343C327.646 81.8325 327.536 81.8594 327.437 81.9124C327.338 81.9654 327.255 82.0427 327.195 82.1371C327.134 82.2314 327.099 82.3396 327.093 82.4513C327.067 83.4852 326.874 84.5081 326.521 85.4804C326.521 85.4804 330.166 84.9412 331.447 85.4804Z"
        fill="#F7A48B" />
    <path
        d="M305.139 84.6134C305.393 83.8828 305.878 83.2541 306.519 82.8213C306.743 82.6935 306.998 82.6337 307.255 82.6494C307.512 82.6651 307.758 82.7555 307.964 82.9095C308.17 83.0636 308.326 83.2744 308.413 83.5162C308.501 83.7579 308.515 84.0199 308.456 84.2698C308.408 84.4362 308.324 84.5899 308.21 84.7198C308.095 84.8496 307.953 84.9524 307.794 85.0205L305.139 84.6134Z"
        fill="#F7A48B" />
    <path
        d="M296.796 316.447L297.632 326.697C297.632 326.697 306.689 324.683 307.192 330.551L308.202 316.473L296.796 316.447Z"
        fill="#F9B499" />
    <path
        d="M335.288 318.371L336.346 326.385C336.346 326.385 343.498 328.986 347.873 325.143L346.376 314.369C346.376 314.369 342.313 317.821 335.288 318.371Z"
        fill="#F9B499" />
    <path
        d="M294.654 192.307C294.654 192.307 291.427 239.187 294.617 272.036L296.796 316.441C296.796 316.441 314.407 322.648 312.238 310.748C312.238 310.748 313.249 290.3 313.249 273.373C313.249 273.373 315.09 237.511 317.105 230.639C317.105 230.639 318.28 252.762 323.982 275.573C323.982 275.573 330.045 310.235 331.277 317.578C331.301 317.729 331.371 317.869 331.478 317.978C331.586 318.087 331.724 318.16 331.875 318.186C333.626 318.493 339.599 319.079 346.397 314.385C346.715 314.163 346.965 313.857 347.121 313.502C347.277 313.147 347.332 312.755 347.28 312.371C346.349 305.774 342.053 274.066 341.757 246.746L341.255 204.683L313.296 188.242L294.654 192.307Z"
        fill="#232323" />
    <path opacity="0.1"
        d="M294.654 192.307C294.654 192.307 291.427 239.187 294.617 272.036L296.796 316.441C296.796 316.441 314.407 322.648 312.238 310.748C312.238 310.748 313.249 290.3 313.249 273.373C313.249 273.373 315.09 237.511 317.105 230.639C317.105 230.639 318.28 252.762 323.982 275.573C323.982 275.573 330.045 310.235 331.277 317.578C331.301 317.729 331.371 317.869 331.478 317.978C331.586 318.087 331.724 318.16 331.875 318.186C333.626 318.493 339.599 319.079 346.397 314.385C346.715 314.163 346.965 313.857 347.121 313.502C347.277 313.147 347.332 312.755 347.28 312.371C346.349 305.774 342.053 274.066 341.757 246.746L341.255 204.683L313.296 188.242L294.654 192.307Z"
        fill="black" />
    <path
        d="M337.732 105.669L347.487 115.132L332.521 124.594L302.499 123.463C302.499 123.463 293.252 124.023 286.507 116.712C286.507 116.712 289.062 114.154 290.946 111.812C291.825 110.715 292.875 109.768 294.056 109.005L297.696 106.673C297.696 106.673 293.104 99.5051 290.237 98.358C290.237 98.358 260.823 110.4 263.548 116.564C263.548 116.564 262.728 124.467 285.015 141.6C285.809 142.195 286.636 142.746 287.491 143.25C288.755 144.027 291.311 146.712 291.527 155.852L291.813 190.409C291.813 190.409 291.385 192.418 297.41 192.561C297.41 192.561 299.849 194.427 314.772 194.998C314.772 194.998 322.549 195.236 327.855 199.655C329.273 200.879 330.822 201.943 332.473 202.827C337.15 205.243 345.392 209.075 344.043 205.343C342.181 200.184 342.456 201.331 342.752 195.881C342.752 195.881 343.757 182.834 342.038 171.648C342.038 171.648 339.742 147.627 346.772 140.781L364.135 124.758C364.135 124.758 371.737 117.447 364.135 110.707L344.191 95.9421C344.191 95.9421 338.017 103.66 337.732 105.669Z"
        fill="#D31C5B" />
    <path opacity="0.1"
        d="M344.942 112.663C344.942 112.663 352.348 114.989 356.819 114.989C351.003 118.233 344.612 120.319 338.001 121.132L347.487 115.132L344.942 112.663Z"
        fill="black" />
    <path opacity="0.1"
        d="M342.276 173.334C342.276 173.334 335.927 168.222 338.361 152.157C338.738 149.512 339.637 146.967 341.006 144.672C342.371 142.436 344.344 140.31 346.783 140.76C344.358 143.821 342.869 147.516 342.492 151.401C342.492 151.401 340.805 162.423 342.276 173.334Z"
        fill="black" />
    <path opacity="0.1"
        d="M292.389 110.279C292.389 110.279 282.084 118.414 274.022 118.414C274.022 118.414 281.428 118.726 284.761 120.529C285.686 121.047 286.675 121.442 287.702 121.702C290.413 122.357 293.2 122.64 295.987 122.543C295.987 122.543 290.093 121.153 286.507 116.728L292.389 110.279Z"
        fill="black" />
    <path opacity="0.1"
        d="M274.445 132.629C274.445 132.629 282.629 139.221 289.517 139.65C289.517 139.65 295.548 138.36 294.543 149.118L291.607 168.037C291.607 168.037 293.532 146.649 287.374 143.223C286.513 142.72 285.696 142.145 284.93 141.505C282.084 139.211 276.577 134.802 274.445 132.629Z"
        fill="black" />
    <path
        d="M309.064 123.463C309.404 125.353 310.185 127.136 311.344 128.667C312.503 130.198 314.007 131.434 315.735 132.275C315.735 132.275 316.899 135.77 317.729 136.599H318.734L320.395 132.941C320.395 132.941 327.595 128.76 327.68 121.697L309.064 123.463Z"
        fill="#F7A48B" />
    <path
        d="M317.73 128.03C325.305 128.03 331.447 118.951 331.447 107.752C331.447 96.5524 325.305 87.4734 317.73 87.4734C310.154 87.4734 304.012 96.5524 304.012 107.752C304.012 118.951 310.154 128.03 317.73 128.03Z"
        fill="#F9B499" />
    <path
        d="M333.804 109.379C334.064 107.143 333.215 105.207 331.909 105.056C330.603 104.905 329.334 106.595 329.075 108.831C328.816 111.067 329.664 113.002 330.97 113.153C332.276 113.305 333.545 111.615 333.804 109.379Z"
        fill="#F9B499" />
    <path
        d="M305.102 113.047C306.369 112.695 306.905 110.651 306.301 108.483C305.696 106.314 304.179 104.842 302.913 105.195C301.646 105.548 301.11 107.591 301.714 109.76C302.319 111.928 303.836 113.4 305.102 113.047Z"
        fill="#F9B499" />
    <path
        d="M302.917 105.198C302.917 105.198 298.912 89.0751 311.725 86.5799C311.878 85.0917 311.473 83.5995 310.587 82.3931C310.587 82.3931 313.312 83.1861 314.783 84.883V82.8425C314.783 82.8425 316.37 83.5244 316.936 84.3174C316.936 84.3174 319.089 82.8425 320.337 82.9588C320.337 82.9588 319.205 84.772 319.882 85.3376C319.882 85.3376 324.987 84.0901 327.14 81.4839C327.14 81.4839 327.595 85.3376 325.326 86.8073C325.326 86.8073 334.996 94.5676 331.917 105.072C331.917 105.072 329.722 108.333 329.976 110.596C329.976 110.596 327.251 111.05 328.272 106.975C328.272 106.975 329.748 100.821 329.066 97.9086C329.066 97.9086 325.553 97.5703 324.532 94.9641C324.532 94.9641 326.23 99.7218 325.664 102.101C325.664 102.101 322.263 94.6258 317.729 93.1509C317.729 93.1509 318.523 101.424 308.551 100.287C308.551 100.287 310.704 98.9289 310.36 96.7773L309 96.55C309 96.55 307.979 100.742 305.17 99.6161C305.17 99.6161 306.17 108.561 307.286 111.616C307.286 111.616 304.641 111.436 304.112 105.352L302.917 105.198Z"
        fill="#232323" />
    <path
        d="M310.403 141.595C310.403 141.595 303.076 128.459 302.325 122.453L307.086 120.54L309.064 123.463C309.064 123.463 309.593 129.109 315.735 132.275C315.735 132.275 314.402 138.429 310.403 141.595Z"
        fill="#D31C5B" />
    <path opacity="0.2"
        d="M310.403 141.595C310.403 141.595 303.076 128.459 302.325 122.453L307.086 120.54L309.064 123.463C309.064 123.463 309.593 129.109 315.735 132.275C315.735 132.275 314.402 138.429 310.403 141.595Z"
        fill="white" />
    <path
        d="M320.396 132.941C320.396 132.941 321.565 138.931 325.559 140.76C329.643 135.482 332.066 129.11 332.521 122.453L327.68 121.697C327.68 121.697 325.395 129.278 320.396 132.941Z"
        fill="#D31C5B" />
    <path opacity="0.2"
        d="M320.396 132.941C320.396 132.941 321.565 138.931 325.559 140.76C329.643 135.482 332.066 129.11 332.521 122.453L327.68 121.697C327.68 121.697 325.395 129.278 320.396 132.941Z"
        fill="white" />
    <path
        d="M313.92 137.107L321.692 136.578L322.316 137.694L319.882 138.751L319.962 143.355C319.962 143.355 322.956 169.185 327.14 177.294C327.268 177.537 327.32 177.812 327.291 178.085C327.261 178.358 327.152 178.616 326.976 178.827L324.13 182.194C324.028 182.315 323.901 182.412 323.758 182.48C323.615 182.548 323.46 182.585 323.301 182.589C323.143 182.593 322.986 182.564 322.84 182.503C322.694 182.443 322.562 182.352 322.453 182.237C321.309 181.03 320.051 179.936 318.697 178.97C318.036 178.494 317.327 178.087 316.624 177.68C315.677 177.125 313.513 175.116 313.92 168.355L315.735 143.318C315.735 143.318 316.37 140.147 315.238 139.243L313.28 138.249L313.92 137.107Z"
        fill="#232323" />
    <path
        d="M338.594 93.6266C338.594 93.6266 335.721 85.1685 329.41 85.1685L319.888 85.327C319.888 85.327 317.084 88.1817 326.405 89.3975C326.405 89.3975 330.219 90.7138 329.987 94.3456C329.987 94.3456 330.129 100.657 334.436 101.218L338.594 93.6266Z"
        fill="#F9B499" />
    <path
        d="M337.731 105.669C337.731 105.669 332.785 104.226 334.43 101.223L338.594 93.6267C338.594 93.6267 338.879 92.3315 341.175 93.6267L344.191 95.9209C344.191 95.9209 339.144 101.942 337.731 105.669Z"
        fill="#232323" />
    <path
        d="M290.236 98.3579L295.987 95.0645L301.277 104.876L297.69 106.673C297.69 106.673 294.326 101.371 290.236 98.3579Z"
        fill="#232323" />
    <path
        d="M295.987 95.0647C295.987 95.0647 300.182 84.6135 305.139 84.6135L315.619 86.1994C315.776 86.2215 315.925 86.2815 316.054 86.3743C316.183 86.467 316.288 86.5897 316.358 86.7318C316.429 86.8739 316.464 87.031 316.461 87.1897C316.457 87.3484 316.415 87.5038 316.338 87.6426C315.878 88.3986 314.566 89.0594 310.995 88.277C310.909 88.257 310.819 88.2551 310.732 88.2712C310.645 88.2874 310.562 88.3214 310.488 88.371C310.415 88.4206 310.352 88.4848 310.305 88.5595C310.257 88.6343 310.226 88.7181 310.212 88.8056C310.164 89.2127 309.683 89.6409 307.911 89.7677C307.416 89.7965 306.935 89.9423 306.507 90.1932C306.079 90.4441 305.717 90.7929 305.451 91.2109C304.892 92.1444 304.594 93.2105 304.589 94.2981C304.582 95.8895 304.106 97.4437 303.221 98.7665C302.336 100.089 301.08 101.122 299.611 101.736L295.987 95.0647Z"
        fill="#F9B499" />
    <path
        d="M289.813 339.532C290.136 337.978 290.871 335.668 292.553 334.558C293.292 334.099 293.954 333.528 294.516 332.866C295.938 331.027 296.996 328.933 297.632 326.697C297.632 326.697 307.361 324.852 307.191 330.551C307.191 330.551 308.641 332.137 308.308 336.524C308.256 337.17 308.358 337.818 308.604 338.417C308.974 339.315 309.334 340.674 308.355 341.107H291.078C290.883 341.109 290.69 341.067 290.515 340.984C290.339 340.9 290.184 340.778 290.062 340.627C289.941 340.475 289.855 340.298 289.812 340.108C289.769 339.918 289.769 339.722 289.813 339.532Z"
        fill="#D31C5B" />
    <path
        d="M308.228 341.081H290.543C290.125 341.081 289.787 341.418 289.787 341.834C289.787 342.25 290.125 342.588 290.543 342.588H308.228C308.646 342.588 308.985 342.25 308.985 341.834C308.985 341.418 308.646 341.081 308.228 341.081Z"
        fill="#232323" />
    <path
        d="M336.351 326.385C336.351 326.385 334.234 333.484 334.361 340.373L368.943 341.081C368.943 341.081 370.53 337.819 358.744 333.733C358.744 333.733 348.454 329.314 347.878 325.143C347.878 325.143 344.566 328.949 336.351 326.385Z"
        fill="#D31C5B" />
    <path d="M369.018 343.153L334.362 342.588V340.373L368.944 341.081L369.018 343.153Z"
        fill="#232323" />
    <path opacity="0.1" d="M315.439 197.118L317.089 230.638" stroke="black" stroke-miterlimit="10" />
    <path
        d="M313.92 137.107C314.732 135.582 315.342 133.958 315.735 132.275L320.396 132.941C320.698 134.203 321.133 135.429 321.692 136.599C321.692 136.599 316.312 138.016 313.92 137.107Z"
        fill="#232323" />
    <path d="M310.995 88.2981H305.139L303.24 90.4708" stroke="#F7A48B" stroke-miterlimit="10" />
    <path d="M326.4 89.3923C326.4 89.3923 331.553 88.335 332.521 91.2954" stroke="#F7A48B"
        stroke-miterlimit="10" />
    <path
        d="M564.962 265.591L566.283 159.101L481.4 158.047L417.343 157.252L416.021 263.742L468.382 264.392L500.903 264.796L564.962 265.591Z"
        fill="#F2BACD" />
    <path d="M443.075 239.407L435.724 239.316L435.517 256.021L442.868 256.113L443.075 239.407Z"
        fill="#232323" />
    <path opacity="0.2"
        d="M443.075 239.407L435.724 239.316L435.575 251.343L442.926 251.434L443.075 239.407Z"
        fill="black" />
    <path d="M454.523 245.028L447.171 244.936L447.032 256.162L454.383 256.254L454.523 245.028Z"
        fill="#232323" />
    <path opacity="0.2"
        d="M454.523 245.028L447.171 244.936L447.121 248.945L454.473 249.036L454.523 245.028Z"
        fill="black" />
    <path d="M465.819 239.69L458.467 239.598L458.26 256.304L465.611 256.395L465.819 239.69Z"
        fill="#232323" />
    <path d="M477.087 245.376L469.735 245.285L469.596 256.445L476.948 256.536L477.087 245.376Z"
        fill="#232323" />
    <path d="M511.311 240.254L503.96 240.163L503.753 256.868L511.104 256.959L511.311 240.254Z"
        fill="#232323" />
    <path d="M522.802 234.246L515.451 234.155L515.17 256.83L522.521 256.922L522.802 234.246Z"
        fill="#232323" />
    <path d="M534.09 240.537L526.738 240.446L526.53 257.262L533.881 257.353L534.09 240.537Z"
        fill="#232323" />
    <path d="M545.526 234.528L538.174 234.436L537.893 257.112L545.244 257.203L545.526 234.528Z"
        fill="#232323" />
    <path opacity="0.2"
        d="M545.381 246.155L538.029 246.063L537.892 257.113L545.244 257.204L545.381 246.155Z"
        fill="black" />
    <path d="M488.58 245.519L481.228 245.427L481.09 256.588L488.441 256.679L488.58 245.519Z"
        fill="#232323" />
    <path opacity="0.2"
        d="M488.536 249.15L481.184 249.059L481.093 256.411L488.445 256.502L488.536 249.15Z"
        fill="black" />
    <path d="M500.086 233.963L492.734 233.872L492.453 256.548L499.804 256.639L500.086 233.963Z"
        fill="#232323" />
    <path opacity="0.2"
        d="M499.946 245.302L492.594 245.211L492.453 256.549L499.805 256.64L499.946 245.302Z"
        fill="black" />
    <path opacity="0.2"
        d="M534.022 245.994L526.67 245.903L526.529 257.263L533.881 257.354L534.022 245.994Z"
        fill="black" />
    <path opacity="0.2"
        d="M465.819 239.69L458.467 239.598L458.33 250.693L465.681 250.785L465.819 239.69Z"
        fill="black" />
    <g opacity="0.1">
        <path d="M449.065 190.189L448.908 190.187L448.521 221.415L448.678 221.417L449.065 190.189Z"
            fill="black" />
        <path d="M470.082 190.45L469.925 190.448L469.537 221.676L469.694 221.678L470.082 190.45Z"
            fill="black" />
        <path d="M535.482 192.756L445.746 191.643L445.744 191.8L535.48 192.913L535.482 192.756Z"
            fill="black" />
        <path d="M535.394 199.84L445.657 198.726L445.655 198.883L535.392 199.997L535.394 199.84Z"
            fill="black" />
        <path d="M535.311 206.658L445.574 205.544L445.572 205.701L535.309 206.814L535.311 206.658Z"
            fill="black" />
        <path d="M535.222 213.74L445.485 212.627L445.483 212.784L535.22 213.897L535.222 213.74Z"
            fill="black" />
        <path d="M535.132 220.912L445.396 219.798L445.394 219.955L535.13 221.069L535.132 220.912Z"
            fill="black" />
        <path d="M491.25 190.713L491.093 190.711L490.706 221.939L490.863 221.941L491.25 190.713Z"
            fill="black" />
        <path d="M512.268 190.974L512.111 190.972L511.724 222.2L511.881 222.202L512.268 190.974Z"
            fill="black" />
        <path d="M533.172 191.233L533.015 191.231L532.627 222.459L532.784 222.461L533.172 191.233Z"
            fill="black" />
    </g>
    <path
        d="M547.47 228.412L426.996 226.917L427.525 184.309L427.839 184.313L427.314 226.607L547.474 228.098L547.47 228.412Z"
        fill="#232323" />
    <path
        d="M427.221 223.519L427.174 223.213L448.052 219.837L461.045 212.694L461.116 212.726L469.464 216.67L480.93 206.079L480.942 206.071L491.203 199.294L498.459 192.157L505.849 199.19L511.709 192.344L526.663 200.082L532.969 206.691L544.665 206.836L544.661 207.147L532.834 207L526.474 200.336L511.787 192.736L505.872 199.644L498.465 192.591L491.4 199.536L491.388 199.544L481.124 206.324L469.522 217.042L469.425 216.995L461.055 213.042L448.156 220.135L448.128 220.14L427.221 223.519Z"
        fill="#232323" />
    <path
        d="M448.598 221.518C449.483 221.529 450.21 220.82 450.221 219.935C450.232 219.049 449.523 218.323 448.638 218.312C447.752 218.301 447.026 219.01 447.015 219.895C447.004 220.78 447.713 221.507 448.598 221.518Z"
        fill="#232323" />
    <path
        d="M461.079 214.569C461.964 214.58 462.691 213.871 462.702 212.986C462.713 212.1 462.004 211.374 461.119 211.363C460.233 211.352 459.507 212.061 459.496 212.946C459.485 213.831 460.193 214.558 461.079 214.569Z"
        fill="#232323" />
    <path
        d="M469.657 218.572C470.542 218.583 471.269 217.875 471.28 216.989C471.291 216.104 470.582 215.378 469.697 215.367C468.811 215.356 468.085 216.064 468.074 216.95C468.063 217.835 468.772 218.561 469.657 218.572Z"
        fill="#232323" />
    <path
        d="M481.108 207.807C481.993 207.818 482.719 207.109 482.73 206.224C482.741 205.339 482.033 204.612 481.147 204.601C480.262 204.59 479.536 205.299 479.525 206.184C479.514 207.069 480.222 207.796 481.108 207.807Z"
        fill="#232323" />
    <path
        d="M490.971 200.968C491.857 200.979 492.583 200.27 492.594 199.385C492.605 198.5 491.896 197.773 491.011 197.762C490.126 197.751 489.399 198.46 489.388 199.345C489.377 200.23 490.086 200.957 490.971 200.968Z"
        fill="#232323" />
    <path
        d="M498.601 193.978C499.486 193.989 500.213 193.28 500.224 192.395C500.235 191.51 499.526 190.783 498.641 190.772C497.756 190.761 497.029 191.47 497.018 192.355C497.007 193.241 497.716 193.967 498.601 193.978Z"
        fill="#232323" />
    <path
        d="M505.68 201.151C506.566 201.162 507.292 200.453 507.303 199.567C507.314 198.682 506.605 197.956 505.72 197.945C504.835 197.934 504.108 198.642 504.097 199.528C504.086 200.413 504.795 201.14 505.68 201.151Z"
        fill="#232323" />
    <path
        d="M512.151 194.146C513.036 194.157 513.763 193.449 513.774 192.563C513.785 191.678 513.076 190.952 512.191 190.941C511.306 190.93 510.579 191.638 510.568 192.524C510.557 193.409 511.266 194.135 512.151 194.146Z"
        fill="#232323" />
    <path
        d="M525.733 201.399C526.618 201.41 527.345 200.701 527.356 199.816C527.367 198.931 526.658 198.204 525.773 198.193C524.888 198.182 524.161 198.891 524.15 199.776C524.139 200.662 524.848 201.388 525.733 201.399Z"
        fill="#232323" />
    <path
        d="M532.88 208.45C533.765 208.461 534.492 207.752 534.503 206.867C534.514 205.981 533.805 205.255 532.92 205.244C532.035 205.233 531.308 205.942 531.297 206.827C531.286 207.712 531.995 208.439 532.88 208.45Z"
        fill="#232323" />
    <path
        d="M544.642 208.596C545.527 208.607 546.254 207.898 546.265 207.013C546.276 206.128 545.567 205.401 544.682 205.39C543.797 205.379 543.07 206.088 543.059 206.973C543.048 207.858 543.757 208.585 544.642 208.596Z"
        fill="#232323" />
    <path
        d="M500.597 213.641L500.512 213.58L490.832 206.464L469.939 199.284L462.817 206.191L462.718 206.138L448.889 199.022L427.415 212.679L427.248 212.415L448.871 198.663L448.95 198.704L462.762 205.811L469.858 198.926L490.995 206.198L500.616 213.268L511.933 206.47L511.95 206.464L532.921 199.743L544.22 192.81L544.385 193.077L533.055 200.03L533.035 200.035L512.061 206.754L500.597 213.641Z"
        fill="#232323" />
    <path d="M552.259 257.313L428.913 255.782L428.909 256.093L552.255 257.624L552.259 257.313Z"
        fill="#3F3D56" />
    <g opacity="0.2">
        <path d="M488.753 176.615L429.914 175.885L429.91 176.196L488.749 176.926L488.753 176.615Z"
            fill="black" />
    </g>
    <g opacity="0.2">
        <path d="M488.724 179.035L429.885 178.305L429.881 178.616L488.72 179.346L488.724 179.035Z"
            fill="black" />
    </g>
    <g opacity="0.2">
        <path d="M488.701 180.763L429.862 180.032L429.858 180.343L488.698 181.074L488.701 180.763Z"
            fill="black" />
    </g>
    <path d="M488.023 170.224L429.994 169.504L429.947 173.241L487.976 173.961L488.023 170.224Z"
        fill="#232323" />
    <path
        d="M448.856 200.705C449.741 200.716 450.467 200.007 450.478 199.122C450.489 198.237 449.781 197.51 448.895 197.499C448.01 197.488 447.284 198.197 447.273 199.082C447.262 199.967 447.97 200.694 448.856 200.705Z"
        fill="#232323" />
    <path
        d="M462.767 207.836C463.652 207.847 464.379 207.138 464.39 206.253C464.401 205.368 463.692 204.641 462.807 204.63C461.921 204.619 461.195 205.328 461.184 206.213C461.173 207.098 461.881 207.825 462.767 207.836Z"
        fill="#232323" />
    <path
        d="M469.875 200.965C470.76 200.976 471.487 200.268 471.498 199.382C471.509 198.497 470.8 197.771 469.915 197.76C469.03 197.749 468.303 198.457 468.292 199.343C468.281 200.228 468.99 200.954 469.875 200.965Z"
        fill="#232323" />
    <path
        d="M491.194 207.933C492.08 207.944 492.806 207.235 492.817 206.35C492.828 205.464 492.12 204.738 491.234 204.727C490.349 204.716 489.622 205.425 489.611 206.31C489.6 207.195 490.309 207.922 491.194 207.933Z"
        fill="#232323" />
    <path
        d="M500.752 215.061C501.637 215.072 502.363 214.363 502.374 213.478C502.385 212.593 501.677 211.866 500.791 211.855C499.906 211.844 499.18 212.553 499.169 213.438C499.158 214.323 499.866 215.05 500.752 215.061Z"
        fill="#232323" />
    <path
        d="M512.04 208.191C512.925 208.202 513.652 207.493 513.662 206.608C513.673 205.723 512.965 204.996 512.079 204.985C511.194 204.974 510.468 205.683 510.457 206.568C510.446 207.453 511.154 208.18 512.04 208.191Z"
        fill="#232323" />
    <path
        d="M532.968 201.489C533.853 201.5 534.58 200.791 534.591 199.906C534.602 199.021 533.893 198.294 533.008 198.283C532.122 198.272 531.396 198.981 531.385 199.866C531.374 200.752 532.083 201.478 532.968 201.489Z"
        fill="#232323" />
    <path
        d="M544.193 194.544C545.078 194.555 545.804 193.846 545.815 192.961C545.826 192.076 545.118 191.349 544.232 191.338C543.347 191.327 542.62 192.036 542.61 192.921C542.599 193.806 543.307 194.533 544.193 194.544Z"
        fill="#232323" />
    <path
        d="M497.869 175.972L489.689 156.897L502.098 157.051L509.407 177.399L497.78 194.659L507.809 214.184L494.465 231.851L504.56 246.099L497.046 253.852L500.165 266.872L488.754 266.73L486.633 253.722L492.14 246.801L481.486 231.69L495.97 214.037L485.799 194.51L497.869 175.972Z"
        fill="white" />
    <path
        d="M275.858 280.177C275.91 280.261 274.8 281.007 273.117 282.291C268.679 285.637 264.695 289.547 261.267 293.921C259.95 295.597 259.151 296.681 259.104 296.623C259.056 296.564 259.675 295.423 260.908 293.652C262.539 291.367 264.367 289.231 266.372 287.266C268.368 285.294 270.537 283.505 272.853 281.921C274.636 280.705 275.794 280.087 275.858 280.177Z"
        fill="#232323" />
    <path
        d="M273.62 270.963C273.794 271.005 273.213 273.971 272.319 277.581C271.424 281.192 270.567 284.126 270.382 284.078C270.197 284.03 270.795 281.065 271.684 277.454C272.572 273.844 273.44 270.92 273.62 270.963Z"
        fill="#232323" />
    <path
        d="M272.636 270.461C272.197 270.656 272.07 271.74 272.429 272.268C272.635 272.515 272.921 272.68 273.236 272.735C273.552 272.79 273.877 272.732 274.154 272.57C274.483 272.384 274.726 272.077 274.833 271.715C274.939 271.353 274.901 270.964 274.725 270.63C274.604 270.47 274.449 270.338 274.271 270.243C274.094 270.148 273.898 270.093 273.698 270.08C273.497 270.068 273.296 270.099 273.108 270.171C272.92 270.243 272.75 270.354 272.609 270.498"
        fill="#232323" />
    <path
        d="M277.323 274.637C277.397 274.795 276.334 275.44 274.916 276.069C273.498 276.698 272.34 277.09 272.271 276.931C272.202 276.772 273.265 276.128 274.678 275.493C276.09 274.859 277.238 274.494 277.323 274.637Z"
        fill="#232323" />
    <path
        d="M277.201 273.595C276.814 273.848 276.519 274.219 276.36 274.653C276.289 274.873 276.3 275.112 276.391 275.325C276.483 275.538 276.648 275.71 276.857 275.81C277.001 275.852 277.154 275.857 277.3 275.826C277.447 275.795 277.584 275.727 277.698 275.631C277.924 275.427 278.092 275.168 278.185 274.88C278.313 274.582 278.332 274.249 278.238 273.939C278.181 273.788 278.071 273.663 277.93 273.587C277.788 273.51 277.623 273.487 277.466 273.521"
        fill="#232323" />
    <path
        d="M277.17 278.95C277.497 278.986 277.798 279.145 278.011 279.395C278.224 279.646 278.333 279.968 278.316 280.296C278.298 280.625 278.155 280.934 277.916 281.16C277.678 281.386 277.361 281.512 277.032 281.512C276.703 281.512 276.387 281.386 276.148 281.16C275.909 280.934 275.766 280.625 275.748 280.296C275.731 279.968 275.84 279.646 276.053 279.395C276.266 279.145 276.567 278.986 276.895 278.95"
        fill="#232323" />
    <path
        d="M248.756 242.834C248.863 243.548 248.914 244.269 248.91 244.991C248.957 246.476 249.026 248.459 249.105 250.853C249.238 255.807 249.375 262.642 249.492 270.196C249.608 277.75 249.671 284.596 249.687 289.55V295.412C249.714 296.131 249.682 296.85 249.592 297.564C249.486 296.853 249.433 296.136 249.433 295.417C249.386 293.932 249.328 291.95 249.248 289.555C249.116 284.601 248.978 277.756 248.857 270.201C248.735 262.647 248.677 255.801 248.677 250.853V244.986C248.65 244.267 248.677 243.548 248.756 242.834Z"
        fill="#232323" />
    <path
        d="M258.411 238.705C258.563 240.588 258.152 242.472 257.232 244.122C256.312 245.771 254.923 247.111 253.241 247.971C251.559 248.832 249.659 249.174 247.782 248.956C245.905 248.737 244.135 247.968 242.696 246.744C241.257 245.52 240.213 243.897 239.697 242.081C239.181 240.265 239.215 238.336 239.796 236.539C240.377 234.742 241.477 233.157 242.959 231.986C244.441 230.814 246.238 230.108 248.121 229.956C250.646 229.755 253.148 230.563 255.078 232.203C257.007 233.844 258.206 236.182 258.411 238.705Z"
        fill="#D31C5B" />
    <g opacity="0.3">
        <path
            d="M248.492 249.035C248.397 249.035 248.492 247.978 248.571 246.27C248.702 244.085 248.371 241.896 247.598 239.847C246.764 237.836 245.223 236.198 243.265 235.243C241.747 234.545 240.652 234.64 240.657 234.519C240.663 234.397 240.922 234.418 241.408 234.418C242.105 234.432 242.794 234.573 243.44 234.836C244.509 235.275 245.48 235.922 246.297 236.739C247.114 237.555 247.761 238.526 248.201 239.594C249.014 241.725 249.302 244.02 249.042 246.286C248.857 248.009 248.566 249.045 248.492 249.035Z"
            fill="black" />
    </g>
    <g opacity="0.3">
        <path
            d="M257.4 235.734C257.4 235.925 254.724 235.734 252.11 237.447C249.497 239.16 248.539 241.676 248.37 241.576C248.301 241.544 248.423 240.889 248.931 239.953C249.612 238.722 250.586 237.679 251.768 236.914C252.949 236.15 254.3 235.688 255.702 235.57C256.76 235.496 257.411 235.655 257.4 235.734Z"
            fill="black" />
    </g>
    <g opacity="0.3">
        <path
            d="M253.131 236.49C253.026 236.49 252.904 235.856 252.311 235.047C251.996 234.578 251.591 234.176 251.119 233.863C250.648 233.551 250.119 233.334 249.564 233.226C249.009 233.118 248.437 233.121 247.883 233.234C247.329 233.346 246.802 233.568 246.334 233.884C246.073 234.06 245.831 234.264 245.614 234.492C244.9 235.19 244.667 235.819 244.556 235.777C244.445 235.734 244.556 235.052 245.276 234.191C246.018 233.264 247.098 232.671 248.279 232.54C249.459 232.409 250.643 232.752 251.571 233.493C252.02 233.851 252.396 234.292 252.676 234.793C253.242 235.771 253.2 236.49 253.131 236.49Z"
            fill="black" />
    </g>
    <g opacity="0.3">
        <path
            d="M250.492 238.319C250.306 238.319 250.1 237.024 249.291 235.676C248.481 234.328 247.481 233.467 247.577 233.319C247.672 233.17 248.968 233.847 249.846 235.359C250.724 236.871 250.661 238.33 250.492 238.319Z"
            fill="black" />
    </g>
    <g opacity="0.3">
        <path
            d="M249.566 235.481C249.608 235.666 248.82 235.919 248.169 236.538C247.518 237.156 247.058 237.907 246.894 237.812C246.73 237.717 246.936 236.887 247.725 236.073C248.513 235.259 249.56 235.327 249.566 235.481Z"
            fill="black" />
    </g>
    <path
        d="M228.421 272.136C228.585 272.078 231.214 279.817 234.288 289.396C237.362 298.975 239.705 306.804 239.552 306.841C239.398 306.878 236.753 299.16 233.685 289.587C230.617 280.013 228.252 272.189 228.421 272.136Z"
        fill="#232323" />
    <path
        d="M234.531 291.209C234.425 291.326 231.743 289.206 228.389 286.626C225.035 284.046 222.406 281.815 222.522 281.673C222.639 281.53 225.427 283.523 228.812 286.129C232.198 288.735 234.663 291.067 234.531 291.209Z"
        fill="#232323" />
    <path
        d="M221.036 280.88C220.507 281.356 220.702 282.408 221.284 282.994C221.866 283.581 223.226 283.296 223.697 282.598C223.889 282.236 223.934 281.813 223.821 281.419C223.709 281.025 223.448 280.69 223.094 280.483C222.722 280.304 222.298 280.263 221.898 280.367C221.499 280.472 221.15 280.715 220.914 281.054"
        fill="#232323" />
    <path
        d="M234.531 268.367C234.727 268.404 234.156 271.158 233.013 274.388C231.87 277.618 231.209 280.267 231.013 280.235C230.818 280.203 231.273 277.428 232.41 274.182C233.547 270.936 234.383 268.335 234.531 268.367Z"
        fill="#232323" />
    <path
        d="M234.23 265.983C233.595 266.443 233.563 266.712 233.32 267.458C233.076 268.203 233.426 269.181 234.187 269.34C234.949 269.498 235.568 268.874 235.87 268.203C236.031 267.91 236.115 267.581 236.115 267.246C236.115 266.912 236.031 266.583 235.87 266.289C235.707 266.043 235.453 265.871 235.164 265.811C234.874 265.75 234.573 265.807 234.325 265.967C234.266 266.007 234.211 266.053 234.161 266.104"
        fill="#232323" />
    <path
        d="M223.29 288.831C223.226 288.667 224.348 288.043 225.813 287.43C227.278 286.817 228.506 286.446 228.575 286.605C228.643 286.764 227.517 287.398 226.056 288.011C224.596 288.624 223.364 288.995 223.29 288.831Z"
        fill="#232323" />
    <path
        d="M220.978 287.768C220.544 287.995 220.38 289.053 220.38 289.491C220.398 289.713 220.468 289.927 220.585 290.117C220.701 290.306 220.862 290.465 221.052 290.58C221.313 290.747 221.614 290.839 221.924 290.847C222.234 290.855 222.54 290.778 222.809 290.625C223.079 290.473 223.301 290.249 223.453 289.979C223.605 289.71 223.68 289.404 223.671 289.094C223.661 288.785 223.568 288.484 223.4 288.223C223.232 287.963 222.997 287.754 222.719 287.617C222.441 287.481 222.131 287.423 221.822 287.449C221.513 287.476 221.218 287.586 220.967 287.768"
        fill="#232323" />
    <path
        d="M225.601 270.349C225.489 270.842 225.544 271.357 225.758 271.814C225.972 272.272 226.333 272.644 226.783 272.874C227.233 273.103 227.746 273.176 228.242 273.081C228.738 272.985 229.188 272.727 229.521 272.348C229.684 272.177 229.808 271.972 229.883 271.748C229.959 271.525 229.985 271.287 229.96 271.053C229.828 270.579 229.567 270.151 229.205 269.818C228.844 269.484 228.396 269.258 227.913 269.165C227.452 269.116 226.986 269.204 226.575 269.419C226.164 269.633 225.825 269.964 225.601 270.371"
        fill="#232323" />
    <path
        d="M258.326 279.849C258.411 279.886 258.093 280.843 257.564 282.381C256.947 284.143 256.242 286.136 255.448 288.36C254.644 290.565 253.93 292.589 253.29 294.334C252.724 295.856 252.364 296.787 252.274 296.739C252.184 296.691 253.163 292.795 254.845 288.128C256.528 283.46 258.157 279.78 258.326 279.849Z"
        fill="#232323" />
    <path
        d="M268.473 275.467C268.137 277.048 267.34 278.494 266.182 279.623C265.024 280.751 263.558 281.512 261.967 281.807C260.377 282.103 258.735 281.92 257.248 281.283C255.762 280.646 254.498 279.583 253.616 278.228C252.734 276.873 252.274 275.287 252.294 273.67C252.314 272.054 252.814 270.48 253.729 269.147C254.644 267.815 255.934 266.783 257.436 266.183C258.938 265.583 260.585 265.442 262.167 265.777C264.288 266.227 266.144 267.501 267.327 269.318C268.509 271.135 268.921 273.346 268.473 275.467Z"
        fill="#D31C5B" />
    <g opacity="0.3">
        <path
            d="M257.818 281.53C257.734 281.488 258.083 280.653 258.527 279.273C259.155 277.514 259.411 275.643 259.278 273.78C259.084 271.936 258.227 270.225 256.866 268.964C255.808 268.018 254.888 267.817 254.919 267.706C254.951 267.595 255.919 267.706 257.152 268.616C257.922 269.242 258.561 270.015 259.03 270.89C259.499 271.765 259.791 272.724 259.887 273.712C260.036 275.666 259.706 277.628 258.924 279.426C258.384 280.795 257.892 281.562 257.818 281.53Z"
            fill="black" />
    </g>
    <g opacity="0.3">
        <path
            d="M268.372 272.776C268.335 272.961 266.166 272.173 263.611 272.929C261.056 273.685 259.664 275.509 259.527 275.366C259.389 275.224 259.712 274.801 260.352 274.166C261.212 273.318 262.271 272.696 263.431 272.358C264.592 272.016 265.82 271.972 267.002 272.231C267.907 272.411 268.399 272.686 268.372 272.776Z"
            fill="black" />
    </g>
    <g opacity="0.3">
        <path
            d="M264.68 272.369C264.574 272.369 264.627 271.766 264.331 270.989C264.182 270.53 263.945 270.105 263.633 269.739C263.32 269.372 262.938 269.07 262.509 268.85C262.079 268.631 261.611 268.498 261.13 268.46C260.649 268.421 260.166 268.478 259.707 268.626C259.467 268.699 259.236 268.8 259.019 268.927C258.257 269.313 257.914 269.763 257.813 269.699C257.713 269.636 257.982 269.096 258.771 268.541C259.289 268.176 259.889 267.945 260.519 267.868C261.148 267.791 261.787 267.871 262.378 268.101C262.969 268.331 263.494 268.703 263.905 269.185C264.317 269.667 264.603 270.243 264.738 270.862C264.949 271.803 264.743 272.39 264.68 272.369Z"
            fill="black" />
    </g>
    <g opacity="0.3">
        <path
            d="M262.077 273.231C261.891 273.188 262.024 272.068 261.696 270.762C261.368 269.456 260.77 268.515 260.913 268.399C261.056 268.283 261.971 269.144 262.32 270.619C262.669 272.094 262.235 273.305 262.077 273.231Z"
            fill="black" />
    </g>
    <g opacity="0.3">
        <path
            d="M261.981 270.661C261.981 270.852 261.273 270.889 260.595 271.264C259.918 271.639 259.352 272.099 259.22 271.962C259.088 271.824 259.447 271.179 260.31 270.698C261.172 270.217 262.034 270.513 261.981 270.661Z"
            fill="black" />
    </g>
    <path
        d="M239.509 262.732C239.663 263.172 239.768 263.627 239.821 264.09C239.996 265.1 240.207 266.348 240.424 267.791C240.922 270.936 241.572 275.287 242.228 280.097C242.884 284.908 243.466 289.269 243.873 292.43C244.043 293.905 244.18 295.158 244.302 296.178C244.38 296.636 244.403 297.101 244.371 297.563C244.213 297.126 244.106 296.672 244.053 296.21C243.884 295.2 243.688 293.958 243.45 292.51C242.937 289.349 242.302 284.993 241.646 280.177C240.99 275.361 240.393 271.005 240.001 267.875C239.832 266.4 239.694 265.148 239.573 264.127C239.495 263.666 239.473 263.198 239.509 262.732Z"
        fill="#232323" />
    <path
        d="M246.45 254.131C246.884 255.687 246.846 257.336 246.343 258.871C245.839 260.406 244.891 261.757 243.619 262.753C242.346 263.749 240.807 264.347 239.196 264.469C237.584 264.591 235.972 264.233 234.564 263.44C233.156 262.647 232.015 261.455 231.284 260.014C230.554 258.573 230.268 256.948 230.462 255.344C230.657 253.741 231.322 252.231 232.375 251.005C233.428 249.78 234.82 248.893 236.377 248.459C238.461 247.88 240.69 248.151 242.574 249.213C244.459 250.274 245.845 252.039 246.428 254.12L246.45 254.131Z"
        fill="#D31C5B" />
    <g opacity="0.3">
        <path
            d="M239.832 264.434C239.737 264.434 239.657 263.541 239.409 262.108C239.148 260.266 238.506 258.498 237.525 256.917C236.504 255.37 234.958 254.243 233.171 253.745C231.791 253.401 230.881 253.655 230.87 253.533C230.86 253.412 231.743 253.058 233.277 253.306C234.251 253.505 235.177 253.894 235.999 254.452C236.822 255.01 237.526 255.726 238.07 256.557C239.112 258.215 239.731 260.103 239.874 262.055C239.99 263.53 239.911 264.434 239.832 264.434Z"
            fill="black" />
    </g>
    <g opacity="0.3">
        <path
            d="M245.117 251.794C245.17 251.985 242.884 252.291 240.985 254.147C239.086 256.002 238.679 258.254 238.494 258.196C238.42 258.196 238.398 257.594 238.663 256.727C239.024 255.571 239.669 254.525 240.54 253.684C241.411 252.842 242.479 252.233 243.646 251.911C244.524 251.683 245.112 251.72 245.117 251.794Z"
            fill="black" />
    </g>
    <g opacity="0.3">
        <path
            d="M241.657 253.137C241.562 253.179 241.34 252.661 240.705 252.08C240.003 251.416 239.068 251.052 238.102 251.067C237.135 251.082 236.212 251.474 235.531 252.159C235.357 252.339 235.201 252.536 235.065 252.746C234.573 253.444 234.462 253.994 234.367 253.978C234.272 253.962 234.235 253.375 234.679 252.508C235.15 251.601 235.961 250.918 236.935 250.609C237.909 250.3 238.966 250.39 239.874 250.859C240.325 251.093 240.725 251.413 241.054 251.8C241.652 252.513 241.726 253.127 241.657 253.137Z"
            fill="black" />
    </g>
    <g opacity="0.3">
        <path
            d="M239.763 255.114C239.583 255.162 239.16 254.11 238.287 253.105C237.414 252.101 236.419 251.519 236.483 251.377C236.546 251.234 237.758 251.546 238.752 252.688C239.747 253.83 239.911 255.088 239.763 255.114Z"
            fill="black" />
    </g>
    <g opacity="0.3">
        <path
            d="M238.494 252.878C238.573 253.052 237.964 253.407 237.536 254.041C237.107 254.675 236.822 255.357 236.637 255.294C236.452 255.23 236.478 254.501 237.012 253.676C237.547 252.852 238.446 252.73 238.494 252.878Z"
            fill="black" />
    </g>
    <path d="M240.678 349.618L233.251 296.12H265.193L258.675 349.618H240.678Z" fill="#A7A9AC" />
    <path
        d="M262.892 317.044C262.892 317.187 256.903 317.308 249.523 317.308C242.144 317.308 236.155 317.187 236.155 317.044C236.155 316.901 242.138 316.769 249.523 316.769C256.909 316.769 262.892 316.891 262.892 317.044Z"
        fill="#FAFAFA" />
    <path
        d="M262.219 320.48C262.219 320.628 256.496 320.75 249.428 320.75C242.36 320.75 236.642 320.628 236.642 320.48C236.642 320.332 242.36 320.237 249.428 320.237C256.496 320.237 262.219 320.353 262.219 320.48Z"
        fill="#FAFAFA" />
    <path
        d="M261.823 323.773C261.823 323.921 256.284 324.043 249.46 324.043C242.635 324.043 237.086 323.921 237.086 323.773C237.086 323.625 242.625 323.509 249.46 323.509C256.294 323.509 261.823 323.625 261.823 323.773Z"
        fill="#FAFAFA" />
    <path
        d="M261.384 327.347C261.384 327.495 256.062 327.616 249.486 327.616C242.911 327.616 237.583 327.495 237.583 327.347C237.583 327.199 242.911 327.083 249.486 327.083C256.062 327.083 261.384 327.225 261.384 327.347Z"
        fill="#FAFAFA" />
    <path
        d="M260.987 330.614C260.987 330.767 255.903 330.883 249.634 330.883C243.365 330.883 238.276 330.767 238.276 330.614C238.276 330.461 243.36 330.344 249.634 330.344C255.908 330.344 260.987 330.471 260.987 330.614Z"
        fill="#FAFAFA" />
    <path
        d="M260.352 333.881C260.352 334.029 255.459 334.151 249.423 334.151C243.387 334.151 238.488 334.029 238.488 333.881C238.488 333.733 243.387 333.611 249.423 333.611C255.459 333.611 260.352 333.733 260.352 333.881Z"
        fill="#FAFAFA" />
    <path
        d="M260.193 337.153C260.193 337.296 255.432 337.417 249.566 337.417C243.699 337.417 238.948 337.296 238.948 337.153C238.948 337.01 243.709 336.878 249.566 336.878C255.422 336.878 260.193 337 260.193 337.153Z"
        fill="#FAFAFA" />
    <path
        d="M259.791 340.441C259.791 340.584 255.226 340.706 249.597 340.706C243.969 340.706 239.398 340.584 239.398 340.441C239.398 340.299 243.963 340.172 249.597 340.172C255.231 340.172 259.791 340.267 259.791 340.441Z"
        fill="#FAFAFA" />
    <defs>
        <clipPath id="clip0_0_1">
            <rect width="854.167" height="322.888" fill="white" transform="translate(0 24.0559)" />
        </clipPath>
    </defs>
</svg>