<svg width="261" height="214" viewBox="0 0 261 214" fill="none" xmlns="http://www.w3.org/2000/svg">
<path d="M9.07422 98.2432V100.447" stroke="#D2D8DF" stroke-width="2.44935" stroke-linecap="round"/>
<path d="M4.10938 99.4375L5.91559 101.292" stroke="#D2D8DF" stroke-width="2.44935" stroke-linecap="round"/>
<path d="M1.99609 104.372H4.55006" stroke="#D2D8DF" stroke-width="2.44935" stroke-linecap="round"/>
<path d="M3.89844 109.397L5.70465 107.543" stroke="#D2D8DF" stroke-width="2.44935" stroke-linecap="round"/>
<path d="M9.07422 109.999V107.795" stroke="#D2D8DF" stroke-width="2.44935" stroke-linecap="round"/>
<path d="M12.7588 108.53L11.2852 107.061" stroke="#D2D8DF" stroke-width="2.44935" stroke-linecap="round"/>
<path d="M15.7065 104.855H13.4961" stroke="#D2D8DF" stroke-width="2.44935" stroke-linecap="round"/>
<path d="M14.2314 99.7148L12.7578 101.184" stroke="#D2D8DF" stroke-width="2.44935" stroke-linecap="round"/>
<path d="M127.699 2V3.46938" stroke="#D2D8DF" stroke-width="2.44935" stroke-linecap="round"/>
<path d="M123.277 6.4082H124.751" stroke="#D2D8DF" stroke-width="2.44935" stroke-linecap="round"/>
<path d="M127.699 10.8151V9.3457" stroke="#D2D8DF" stroke-width="2.44935" stroke-linecap="round"/>
<path d="M131.384 6.4082H129.91" stroke="#D2D8DF" stroke-width="2.44935" stroke-linecap="round"/>
<path d="M42.2266 63.7148V65.9189" stroke="#D2D8DF" stroke-width="2.44935" stroke-linecap="round"/>
<path d="M35.5977 70.3271H37.8081" stroke="#D2D8DF" stroke-width="2.44935" stroke-linecap="round"/>
<path d="M42.2266 76.2021V73.998" stroke="#D2D8DF" stroke-width="2.44935" stroke-linecap="round"/>
<path d="M48.1245 70.3271H45.9141" stroke="#D2D8DF" stroke-width="2.44935" stroke-linecap="round"/>
<path d="M200.833 143.824C202.594 143.824 204.022 145.249 204.022 147.005C204.022 148.762 202.594 150.185 200.833 150.185C199.073 150.185 197.645 148.762 197.645 147.005" stroke="#D2D8DF" stroke-width="2.44935" stroke-linecap="round"/>
<path fill-rule="evenodd" clip-rule="evenodd" d="M215.426 114.969C217.319 114.38 220.222 112.071 220.893 109.587C221.503 111.783 224.057 114.38 226.361 114.577C223.767 115.493 221.287 118.213 220.893 120.351C220.626 118.172 217.195 115.287 215.426 114.969Z" fill="#EBECEE"/>
<path fill-rule="evenodd" clip-rule="evenodd" d="M21.0664 142.844C22.0134 142.55 23.464 141.395 23.7999 140.153C24.1045 141.251 25.3812 142.55 26.5334 142.648C25.2367 143.106 23.9969 144.466 23.7999 145.535C23.666 144.446 21.9509 143.003 21.0664 142.844Z" fill="#EBECEE"/>
<path fill-rule="evenodd" clip-rule="evenodd" d="M38.6445 40.6449C38.6445 42.0075 37.5374 43.1111 36.1719 43.1111C34.8058 43.1111 33.6992 42.0075 33.6992 40.6449C33.6992 39.283 34.8058 38.1787 36.1719 38.1787C37.5374 38.1787 38.6445 39.283 38.6445 40.6449Z" fill="#D1D8DF"/>
<path fill-rule="evenodd" clip-rule="evenodd" d="M203.754 47.2646C203.754 49.5411 201.904 51.3866 199.622 51.3866C197.339 51.3866 195.488 49.5411 195.488 47.2646C195.488 44.988 197.339 43.1426 199.622 43.1426C201.904 43.1426 203.754 44.988 203.754 47.2646Z" fill="#EBECEE"/>
<path fill-rule="evenodd" clip-rule="evenodd" d="M261.001 36.0979C261.001 37.9041 259.534 39.3677 257.724 39.3677C255.913 39.3677 254.445 37.9041 254.445 36.0979C254.445 34.2918 255.913 32.8281 257.724 32.8281C259.534 32.8281 261.001 34.2918 261.001 36.0979Z" fill="#EBECEE"/>
<path fill-rule="evenodd" clip-rule="evenodd" d="M84.8515 188.81C84.8515 189.949 83.9264 190.872 82.7848 190.872C81.6439 190.872 80.7188 189.949 80.7188 188.81C80.7188 187.672 81.6439 186.749 82.7848 186.749C83.9264 186.749 84.8515 187.672 84.8515 188.81Z" stroke="#D2D8DF" stroke-width="2.44935" stroke-linecap="round"/>
<path fill-rule="evenodd" clip-rule="evenodd" d="M83.625 24.8002C83.625 26.1628 82.5178 27.2664 81.1523 27.2664C79.7868 27.2664 78.6797 26.1628 78.6797 24.8002C78.6797 23.4383 79.7868 22.334 81.1523 22.334C82.5178 22.334 83.625 23.4383 83.625 24.8002Z" stroke="#D2D8DF" stroke-width="2.44935" stroke-linecap="round"/>
<path fill-rule="evenodd" clip-rule="evenodd" d="M146.693 211.635C145.113 212.234 143.345 211.442 142.744 209.867C142.143 208.291 142.936 206.527 144.517 205.928C146.096 205.328 147.864 206.119 148.465 207.695C149.067 209.271 148.273 211.035 146.693 211.635Z" stroke="#D2D8DF" stroke-width="2.44935" stroke-linecap="round"/>
<line x1="47.6074" y1="108.298" x2="80.9051" y2="80.3711" stroke="black" stroke-width="2"/>
<line x1="81.8257" y1="80.1773" x2="115.123" y2="89.8444" stroke="black" stroke-width="2"/>
<line x1="114.363" y1="89.9279" x2="147.661" y2="71.6678" stroke="black" stroke-width="2"/>
<line x1="148.335" y1="71.5622" x2="181.632" y2="78.0069" stroke="black" stroke-width="2"/>
<line x1="181.065" y1="78.0628" x2="215.437" y2="64.0992" stroke="black" stroke-width="2"/>
<circle cx="47.7122" cy="108.528" r="6.55591" fill="white" stroke="url(#paint0_linear_7762_18859)" stroke-width="3"/>
<circle cx="81.009" cy="80.6008" r="6.55591" fill="white" stroke="url(#paint1_linear_7762_18859)" stroke-width="3"/>
<circle cx="114.306" cy="90.2678" r="6.55591" fill="white" stroke="url(#paint2_linear_7762_18859)" stroke-width="3"/>
<circle cx="147.607" cy="72.0071" r="6.55591" fill="white" stroke="url(#paint3_linear_7762_18859)" stroke-width="3"/>
<circle cx="180.904" cy="78.4524" r="6.55591" fill="white" stroke="url(#paint4_linear_7762_18859)" stroke-width="3"/>
<circle cx="215.275" cy="64.4885" r="6.55591" fill="white" stroke="url(#paint5_linear_7762_18859)" stroke-width="3"/>
<rect x="51.6602" y="132.438" width="17.4373" height="23.5831" fill="#F1F2F7" stroke="#E0E2EE"/>
<rect x="74.4883" y="113.123" width="17.4373" height="42.8983" fill="#E0E2EE" stroke="#CFD5E3"/>
<rect x="108.727" y="119.269" width="17.4373" height="36.7525" fill="#F1F2F7" stroke="#E0E2EE"/>
<rect x="131.555" y="99.0762" width="17.4373" height="56.9458" fill="#E0E2EE" stroke="#CFD5E3"/>
<rect x="165.797" y="108.733" width="17.4373" height="47.2881" fill="#F1F2F7" stroke="#E0E2EE"/>
<rect x="188.625" y="92.0518" width="17.4373" height="63.0915" fill="#E0E2EE" stroke="#CFD5E3"/>
<rect x="43.9531" y="155.253" width="171.859" height="2.14824" rx="1.07412" fill="#212322"/>
<defs>
<linearGradient id="paint0_linear_7762_18859" x1="39.6562" y1="100.472" x2="47.108" y2="119.904" gradientUnits="userSpaceOnUse">
<stop stop-color="#CE0058"/>
<stop offset="0.510417" stop-color="#CE0058"/>
<stop offset="1" stop-color="#B1124B"/>
</linearGradient>
<linearGradient id="paint1_linear_7762_18859" x1="72.9531" y1="72.5449" x2="80.4049" y2="91.9776" gradientUnits="userSpaceOnUse">
<stop stop-color="#CE0058"/>
<stop offset="0.510417" stop-color="#CE0058"/>
<stop offset="1" stop-color="#B1124B"/>
</linearGradient>
<linearGradient id="paint2_linear_7762_18859" x1="106.25" y1="82.2119" x2="113.702" y2="101.645" gradientUnits="userSpaceOnUse">
<stop stop-color="#CE0058"/>
<stop offset="0.510417" stop-color="#CE0058"/>
<stop offset="1" stop-color="#B1124B"/>
</linearGradient>
<linearGradient id="paint3_linear_7762_18859" x1="139.551" y1="63.9512" x2="147.003" y2="83.3838" gradientUnits="userSpaceOnUse">
<stop stop-color="#CE0058"/>
<stop offset="0.510417" stop-color="#CE0058"/>
<stop offset="1" stop-color="#B1124B"/>
</linearGradient>
<linearGradient id="paint4_linear_7762_18859" x1="172.848" y1="70.3965" x2="180.299" y2="89.8291" gradientUnits="userSpaceOnUse">
<stop stop-color="#CE0058"/>
<stop offset="0.510417" stop-color="#CE0058"/>
<stop offset="1" stop-color="#B1124B"/>
</linearGradient>
<linearGradient id="paint5_linear_7762_18859" x1="207.219" y1="56.4326" x2="214.671" y2="75.8653" gradientUnits="userSpaceOnUse">
<stop stop-color="#CE0058"/>
<stop offset="0.510417" stop-color="#CE0058"/>
<stop offset="1" stop-color="#B1124B"/>
</linearGradient>
</defs>
</svg>
