<?xml version="1.0" standalone="no"?>
<!DOCTYPE svg PUBLIC "-//W3C//DTD SVG 20010904//EN"
 "http://www.w3.org/TR/2001/REC-SVG-20010904/DTD/svg10.dtd">
<svg version="1.0" xmlns="http://www.w3.org/2000/svg"
 width="4016.000000pt" height="1772.000000pt" viewBox="0 0 4016.000000 1772.000000"
 preserveAspectRatio="xMidYMid meet">

<g transform="translate(0.000000,1772.000000) scale(0.100000,-0.100000)"
fill="#D31C5B" stroke="none">
<path d="M11646 16889 c-353 -37 -645 -179 -906 -439 -53 -52 -123 -129 -156
-170 -34 -41 -2130 -2820 -4659 -6175 -2529 -3355 -4688 -6218 -4797 -6363
l-199 -263 1098 4 c1158 4 1144 3 1423 52 633 109 1266 421 2260 1113 290 202
668 474 1205 867 1306 956 1597 1163 2136 1523 1026 685 1698 1009 2273 1097
162 25 417 17 547 -18 193 -51 339 -138 487 -291 97 -100 118 -131 672 -981
334 -513 591 -898 709 -1064 442 -618 696 -828 1099 -908 77 -15 183 -17 905
-20 449 -3 817 -2 817 2 0 5 -3330 11589 -3427 11923 l-36 122 -686 -1 c-377
-1 -722 -5 -765 -10z m1438 -5798 c675 -2373 1225 -4317 1224 -4321 -3 -9 -53
47 -438 495 -483 562 -637 732 -875 971 -357 358 -501 463 -802 580 -132 52
-301 96 -463 121 -155 23 -512 23 -695 -1 -883 -114 -1923 -567 -3537 -1537
-419 -252 -749 -457 -1573 -977 -1001 -632 -1657 -1043 -1661 -1040 -1 2 1703
2261 3788 5021 2085 2760 3794 5014 3798 5010 4 -4 560 -1949 1234 -4322z"/>
<path d="M21970 16893 c-643 -35 -1102 -130 -1519 -315 -688 -304 -1123 -823
-1405 -1681 -107 -327 -166 -606 -265 -1272 -39 -258 -73 -485 -76 -502 l-6
-33 -704 0 -704 0 -6 -32 c-8 -45 -195 -1266 -195 -1273 0 -3 327 -5 726 -5
l726 0 -6 -27 c-3 -16 -219 -1562 -481 -3438 -261 -1876 -477 -3422 -479
-3437 l-5 -28 814 0 815 0 5 23 c2 12 219 1559 480 3437 262 1878 478 3427
481 3443 l6 27 1179 0 c1016 0 1179 2 1179 14 0 19 169 1244 175 1274 l5 22
-1180 0 -1181 0 6 33 c3 17 30 203 60 412 66 454 87 573 125 725 93 371 239
660 433 854 148 148 359 257 609 315 213 50 262 54 881 60 l588 6 355 703 355
702 -868 -2 c-477 -1 -893 -3 -923 -5z"/>
<path d="M23560 13082 c0 -4 472 -1869 1049 -4144 577 -2275 1056 -4178 1065
-4229 44 -254 46 -575 7 -803 -64 -366 -253 -702 -562 -1001 -336 -325 -704
-516 -1174 -610 -255 -50 -355 -57 -930 -64 l-539 -6 -361 -700 -361 -700 826
-3 c1059 -4 1348 9 1766 78 556 93 964 259 1362 557 133 99 394 354 496 483
227 288 540 800 898 1470 161 300 208 393 903 1755 732 1435 1393 2728 2916
5707 621 1214 1129 2210 1129 2213 0 3 -272 5 -604 5 -662 0 -701 -3 -857 -60
-217 -79 -407 -229 -536 -423 -42 -63 -523 -1050 -2693 -5519 -261 -538 -477
-978 -480 -978 -3 0 -380 1571 -839 3490 l-835 3490 -823 0 c-453 0 -823 -4
-823 -8z"/>
<path d="M33414 13058 c-34 -66 -594 -1242 -600 -1260 -5 -17 71 -18 1748 -21
1604 -3 1763 -4 1867 -20 449 -69 736 -202 913 -426 113 -142 193 -343 234
-586 23 -138 24 -439 1 -660 -10 -93 -20 -176 -22 -182 -3 -10 -313 -13 -1502
-13 -1487 0 -1733 -5 -2015 -36 -561 -61 -1051 -218 -1461 -468 -510 -310
-834 -770 -993 -1411 -72 -293 -108 -581 -108 -865 -1 -312 35 -540 126 -818
242 -738 868 -1324 1651 -1547 292 -82 496 -109 857 -109 290 -1 393 7 630 50
829 151 1616 610 2278 1328 51 55 94 98 96 95 2 -2 16 -276 30 -609 15 -333
29 -615 32 -628 l4 -22 652 2 652 3 337 2425 c186 1334 349 2526 363 2650 72
642 56 1066 -55 1488 -249 947 -1003 1500 -2229 1636 -293 33 -463 36 -1962
36 l-1507 0 -17 -32z m3961 -4500 c-2 -13 -43 -306 -90 -653 l-86 -630 -47
-43 c-157 -144 -553 -419 -837 -582 -332 -189 -728 -378 -990 -469 -452 -159
-910 -202 -1270 -119 -411 94 -757 346 -895 652 -76 167 -106 348 -97 580 21
524 208 856 602 1071 201 110 496 191 760 208 28 2 704 4 1503 5 l1452 2 -5
-22z"/>
</g>
</svg>
