<svg width="24" height="25" viewBox="0 0 24 25" fill="none" xmlns="http://www.w3.org/2000/svg">
<path opacity="0.4" d="M19.3401 15.3988L18.3401 13.7388C18.1301 13.3688 17.9401 12.6688 17.9401 12.2588V9.72884C17.9401 6.46884 15.2901 3.80884 12.0201 3.80884C8.75007 3.80884 6.10006 6.46884 6.10006 9.72884V12.2588C6.10006 12.6688 5.91006 13.3688 5.70006 13.7288L4.69007 15.3988C4.29007 16.0688 4.20006 16.8088 4.45006 17.4888C4.69006 18.1588 5.26006 18.6788 6.00006 18.9288C7.94006 19.5888 9.98007 19.9088 12.0201 19.9088C14.0601 19.9088 16.1001 19.5888 18.0401 18.9388C18.7401 18.7088 19.2801 18.1788 19.5401 17.4888C19.8001 16.7988 19.7301 16.0388 19.3401 15.3988Z" fill="#8E9794"/>
<path d="M14.2505 4.22881C13.5605 3.95881 12.8105 3.80881 12.0205 3.80881C11.2405 3.80881 10.4905 3.94881 9.80048 4.22881C10.2305 3.41881 11.0805 2.90881 12.0205 2.90881C12.9705 2.90881 13.8105 3.41881 14.2505 4.22881Z" fill="#8E9794"/>
<path d="M14.8303 20.9188C14.4103 22.0788 13.3003 22.9088 12.0003 22.9088C11.2103 22.9088 10.4303 22.5888 9.8803 22.0188C9.5603 21.7188 9.3203 21.3188 9.1803 20.9088C9.3103 20.9288 9.4403 20.9388 9.5803 20.9588C9.8103 20.9888 10.0503 21.0188 10.2903 21.0388C10.8603 21.0888 11.4403 21.1188 12.0203 21.1188C12.5903 21.1188 13.1603 21.0888 13.7203 21.0388C13.9303 21.0188 14.1403 21.0088 14.3403 20.9788C14.5003 20.9588 14.6603 20.9388 14.8303 20.9188Z" fill="#8E9794"/>
</svg>
