<svg width="24" height="24" viewBox="0 0 24 24" fill="none" xmlns="http://www.w3.org/2000/svg">
<path fill-rule="evenodd" clip-rule="evenodd" d="M10.8749 18.7498C6.53246 18.7498 3 15.2174 3 10.8749C3 6.53246 6.53246 3 10.8749 3C15.2174 3 18.7498 6.53246 18.7498 10.8749C18.7498 15.2174 15.2174 18.7498 10.8749 18.7498ZM10.8749 5.25C7.77334 5.25 5.25 7.77334 5.25 10.8749C5.25 13.9765 7.77334 16.4999 10.8749 16.4999C13.9765 16.4999 16.4999 13.9765 16.4999 10.8749C16.4999 7.77334 13.9765 5.25 10.8749 5.25ZM17.9782 16.3875L20.6703 19.0796C21.1102 19.5194 21.1102 20.2304 20.6703 20.6703C20.4509 20.8897 20.1629 20.9999 19.8749 20.9999C19.5869 20.9999 19.299 20.8897 19.0796 20.6703L16.3875 17.9782C16.9826 17.5158 17.5158 16.9826 17.9782 16.3875Z" fill="#5C5F61"/>
</svg>