<svg width="184" height="207" viewBox="0 0 184 207" fill="none" xmlns="http://www.w3.org/2000/svg">
    <g clip-path="url(#clip0_583_4013)">
        <path
            d="M104.311 159.378C148.322 159.378 184 123.7 184 79.6892C184 35.6781 148.322 0 104.311 0C60.2999 0 24.6218 35.6781 24.6218 79.6892C24.6218 123.7 60.2999 159.378 104.311 159.378Z"
            fill="#F2F2F2" />
        <path
            d="M156.387 35.637H10.4071C10.0941 35.6303 9.84573 35.3711 9.85243 35.0581C9.85892 34.7545 10.1035 34.5099 10.4071 34.5034H156.387C156.7 34.5101 156.948 34.7693 156.941 35.0823C156.935 35.3859 156.69 35.6305 156.387 35.637Z"
            fill="#CACACA" />
        <path
            d="M106.637 54.7385H66.2824C63.2514 54.7385 60.7942 57.1957 60.7942 60.2268V60.2268C60.7942 63.2579 63.2514 65.715 66.2824 65.715H106.637C109.668 65.715 112.125 63.2579 112.125 60.2268C112.125 57.1957 109.668 54.7385 106.637 54.7385Z"
            fill="white" />
        <path
            d="M40.2131 76.6914H132.706C135.737 76.6914 138.194 79.1486 138.194 82.1797C138.194 85.2107 135.737 87.6679 132.706 87.6679H40.2131C37.182 87.6679 34.7249 85.2107 34.7249 82.1797C34.7249 79.1486 37.182 76.6914 40.2131 76.6914Z"
            fill="white" />
        <path
            d="M40.2131 98.6445H132.706C135.737 98.6445 138.194 101.102 138.194 104.133C138.194 107.164 135.737 109.621 132.706 109.621H40.2131C37.182 109.621 34.7249 107.164 34.7249 104.133C34.7249 101.102 37.182 98.6445 40.2131 98.6445Z"
            fill="white" />
        <path
            d="M28.7511 206.363L28.5334 206.342C21.1478 205.58 14.4713 201.608 10.2775 195.481C9.12879 193.774 8.19962 191.929 7.51191 189.989L7.44581 189.804L7.6415 189.788C9.9779 189.6 12.3781 189.204 13.4443 189.015L6.56887 186.686L6.52636 186.482C6.11874 184.567 6.91732 182.596 8.54322 181.505C10.1735 180.362 12.3355 180.325 14.0035 181.413C14.7521 181.891 15.5351 182.365 16.2922 182.823C18.8941 184.397 21.5846 186.024 23.6017 188.251C26.6605 191.695 28.0012 196.336 27.2505 200.88L28.7511 206.363Z"
            fill="#F2F2F2" />
        <path d="M53.7429 202.944L57.1312 202.944L58.7435 189.873L53.7419 189.873L53.7429 202.944Z"
            fill="#A0616A" />
        <path
            d="M53.624 206.479L64.0445 206.479V206.347C64.0444 204.107 62.2285 202.291 59.9885 202.291L58.0848 200.847L54.5334 202.291L53.6238 202.291L53.624 206.479Z"
            fill="#232323" />
        <path d="M26.5864 193.559L29.2968 195.592L38.4306 186.104L34.4298 183.103L26.5864 193.559Z"
            fill="#A0616A" />
        <path
            d="M24.3691 196.315L32.7048 202.568L32.7839 202.463C34.128 200.671 33.7653 198.128 31.9736 196.784L31.3174 194.487L27.6099 193.51L26.8822 192.965L24.3691 196.315Z"
            fill="#232323" />
        <path
            d="M37.8508 141.606C37.8508 141.606 38.0379 146.709 38.2738 150.801C38.3125 151.472 36.7402 152.201 36.7809 152.931C36.8079 153.416 37.1035 153.886 37.1309 154.392C37.1599 154.925 36.7519 155.396 36.7809 155.948C36.8093 156.486 37.2748 157.104 37.3029 157.655C37.6051 163.588 38.7005 170.69 37.6036 172.675C37.063 173.654 30.1726 187.209 30.1726 187.209C30.1726 187.209 34.0117 192.967 35.1086 191.048C36.5573 188.513 47.7227 176.651 47.7227 174.386C47.7227 172.124 50.3059 155.169 50.3059 155.169L52.107 165.203L52.9329 167.191L52.6734 168.358L53.2071 169.933L53.236 171.492L53.7556 174.386C53.7556 174.386 52.1926 196.938 53.0728 197.566C53.9558 198.197 58.2309 199.329 58.7354 198.197C59.2373 197.064 62.5037 174.66 62.5037 174.66C62.5037 174.66 63.0302 164.394 63.6006 154.851C63.6334 154.297 64.0229 153.628 64.053 153.082C64.0887 152.449 63.8419 151.626 63.8748 151.012C63.9104 150.307 64.223 149.811 64.2532 149.136C64.4863 143.923 63.1778 137.575 62.761 136.95C61.5023 135.063 60.3698 133.555 60.3698 133.555C60.3698 133.555 43.4168 127.985 38.8867 133.645L37.8508 141.606Z"
            fill="#232323" />
        <path
            d="M54.7589 89.1339L48.0384 87.7898L44.9022 92.0461C39.0501 97.8002 38.962 102.879 40.0067 111.019V122.444L39.2506 130.103C39.2506 130.103 36.5739 135.701 39.3346 137.005C42.0953 138.309 60.229 138.197 61.9604 137.677C63.6917 137.157 62.191 136.518 61.7364 134.093C60.8823 129.538 61.4536 131.735 61.5124 130.285C62.355 109.479 60.3923 100.938 60.193 98.6931L56.7751 92.4942L54.7589 89.1339Z"
            fill="#EC85A8" />
        <path
            d="M90.1804 105.909C89.4799 107.236 87.8363 107.744 86.5092 107.043C86.3677 106.969 86.233 106.882 86.1069 106.783L71.5933 115.999L71.6351 110.981L85.7339 102.799C86.7382 101.674 88.4651 101.575 89.591 102.579C90.5332 103.419 90.7768 104.796 90.1804 105.909Z"
            fill="#A0616A" />
        <path
            d="M49.4528 94.9446L47.8005 94.7695C46.2737 94.6111 44.7757 95.265 43.8538 96.4922C43.5007 96.9576 43.2471 97.4907 43.1087 98.0583L43.1077 98.0628C42.6932 99.7712 43.3433 101.562 44.7574 102.606L50.4643 106.814C54.4693 112.225 61.9962 115.816 70.8253 118.732L84.549 110.209L79.695 104.33L70.2818 109.375L56.2896 98.5437L56.2816 98.5372L50.9561 95.1062L49.4528 94.9446Z"
            fill="#EC85A8" />
        <path
            d="M52.4882 85.8338C56.8165 85.8338 60.3253 82.3251 60.3253 77.9968C60.3253 73.6685 56.8165 70.1597 52.4882 70.1597C48.1599 70.1597 44.6511 73.6685 44.6511 77.9968C44.6511 82.3251 48.1599 85.8338 52.4882 85.8338Z"
            fill="#A0616A" />
        <path
            d="M52.6694 85.8355C52.6062 85.8375 52.5429 85.8389 52.4796 85.8406C52.4525 85.9109 52.4234 85.9805 52.3896 86.0488L52.6694 85.8355Z"
            fill="#2F2E41" />
        <path
            d="M54.8201 78.2141C54.8324 78.2913 54.8512 78.3674 54.8763 78.4414C54.8659 78.3638 54.8471 78.2876 54.8201 78.2141Z"
            fill="#2F2E41" />
        <path
            d="M60.4248 70.4947C60.1023 71.4964 59.8144 70.2258 58.7532 70.4543C57.4766 70.7292 55.9911 70.6348 54.9457 69.8523C53.3881 68.7095 51.3695 68.4018 49.5421 69.0287C47.7533 69.6616 44.7565 70.1078 44.2904 71.9471C44.1284 72.5864 44.0641 73.2802 43.6714 73.8101C43.328 74.2734 42.7861 74.5375 42.3329 74.894C40.8028 76.098 41.9723 79.5185 42.6965 81.3258C43.4207 83.1331 45.082 84.4497 46.9085 85.1241C48.6757 85.7766 50.5938 85.8917 52.479 85.8405C52.8069 84.99 52.6652 84.0078 52.3947 83.1262C52.1018 82.1718 51.6681 81.2507 51.5457 80.2599C51.4234 79.2691 51.6921 78.1437 52.5229 77.5901C53.2865 77.0812 54.5291 77.3912 54.8196 78.2139C54.6501 77.1853 55.692 76.19 56.7664 76.015C57.9198 75.827 59.0733 76.2435 60.2234 76.4508C61.3735 76.658 60.9653 71.8159 60.4248 70.4947Z"
            fill="#232323" />
        <path
            d="M104.256 90.9607C104.987 82.1332 98.4231 74.3848 89.5956 73.6542C80.7681 72.9236 73.0197 79.4875 72.2892 88.315C71.5586 97.1425 78.1224 104.891 86.9499 105.621C95.7774 106.352 103.526 99.7882 104.256 90.9607Z"
            fill="#D31C5B" />
        <path
            d="M92.4857 82.9553L88.2727 87.1683L84.0598 82.9553C83.3778 82.2734 82.2721 82.2734 81.5901 82.9553C80.9081 83.6373 80.9081 84.743 81.5901 85.425L85.803 89.6379L81.5901 93.8509C80.9088 94.5335 80.9098 95.6392 81.5924 96.3206C82.2741 97.001 83.3781 97.001 84.0598 96.3205L88.2727 92.1076L92.4857 96.3205C93.1683 97.0019 94.274 97.0009 94.9553 96.3182C95.6358 95.6365 95.6358 94.5326 94.9553 93.8509L90.7424 89.6379L94.9553 85.425C95.6373 84.743 95.6373 83.6373 94.9553 82.9553C94.2733 82.2734 93.1676 82.2734 92.4857 82.9553Z"
            fill="white" />
        <path
            d="M81.9521 76.1576C82.4249 77.5817 81.6536 79.1195 80.2294 79.5923C80.0776 79.6427 79.9216 79.6796 79.7632 79.7026L76.3653 96.5556L72.7737 93.0518L76.6303 77.2137C76.5131 75.7095 77.6375 74.3951 79.1417 74.2779C80.4003 74.1798 81.5622 74.9569 81.9521 76.1576Z"
            fill="#A0616A" />
        <path
            d="M45.8449 97.9565L44.5747 99.0276C43.4034 100.02 42.8382 101.553 43.0855 103.068C43.1769 103.645 43.386 104.197 43.6998 104.69L43.7024 104.694C44.6482 106.176 46.3902 106.946 48.1229 106.649L55.11 105.444C61.7878 106.3 69.5895 103.354 77.8067 99.0024L81.1573 83.1986L73.5545 82.6313L70.6781 92.9165L53.1753 95.5147L53.165 95.516L47.0023 96.9836L45.8449 97.9565Z"
            fill="#EC85A8" />
        <path
            d="M85.6304 206.75L0.372354 206.846C0.166044 206.845 -0.000666258 206.678 2.00204e-06 206.471C0.000663987 206.266 0.166982 206.1 0.372354 206.099L85.6304 206.002C85.8367 206.003 86.0034 206.171 86.0027 206.377C86.0021 206.583 85.8357 206.749 85.6304 206.75Z"
            fill="#CACACA" />
        <path
            d="M17.8131 28.457C19.2784 28.457 20.4662 27.2427 20.4662 25.7447C20.4662 24.2468 19.2784 23.0325 17.8131 23.0325C16.3478 23.0325 15.1599 24.2468 15.1599 25.7447C15.1599 27.2427 16.3478 28.457 17.8131 28.457Z"
            fill="#3F3D56" />
        <path
            d="M26.9786 28.457C28.4439 28.457 29.6317 27.2427 29.6317 25.7447C29.6317 24.2468 28.4439 23.0325 26.9786 23.0325C25.5133 23.0325 24.3254 24.2468 24.3254 25.7447C24.3254 27.2427 25.5133 28.457 26.9786 28.457Z"
            fill="#3F3D56" />
        <path
            d="M36.1444 28.457C37.6097 28.457 38.7975 27.2427 38.7975 25.7447C38.7975 24.2468 37.6097 23.0325 36.1444 23.0325C34.6791 23.0325 33.4912 24.2468 33.4912 25.7447C33.4912 27.2427 34.6791 28.457 36.1444 28.457Z"
            fill="#3F3D56" />
        <path
            d="M46.5952 27.8885C46.5137 27.8885 46.4323 27.857 46.3709 27.7942L44.5807 25.9641C44.4614 25.8422 44.4614 25.6473 44.5807 25.5254L46.3709 23.6955C46.4924 23.5718 46.6912 23.5698 46.8146 23.6906C46.9385 23.8118 46.9406 24.0105 46.8195 24.1343L45.2439 25.7448L46.8195 27.3554C46.9406 27.4792 46.9385 27.6779 46.8146 27.7991C46.7536 27.8588 46.6744 27.8885 46.5952 27.8885Z"
            fill="#3F3D56" />
        <path
            d="M49.6031 27.8883C49.5239 27.8883 49.4447 27.8586 49.3837 27.7988C49.2598 27.6776 49.2576 27.4791 49.3788 27.3552L50.9542 25.7445L49.3788 24.134C49.2576 24.0102 49.2598 23.8115 49.3837 23.6904C49.5073 23.569 49.7062 23.5713 49.8273 23.6953L51.6174 25.5251C51.7367 25.6471 51.7367 25.842 51.6174 25.9639L49.8273 27.7939C49.7659 27.8567 49.6846 27.8883 49.6031 27.8883Z"
            fill="#3F3D56" />
        <path
            d="M143.257 23.3464H139.928C139.548 23.3464 139.241 23.6539 139.241 24.0335V27.3654C139.241 27.745 139.548 28.0525 139.928 28.0525H143.257C143.636 28.0525 143.947 27.745 143.947 27.3654V24.0335C143.947 23.6539 143.636 23.3464 143.257 23.3464Z"
            fill="#3F3D56" />
        <path
            d="M135.1 23.3464H131.771C131.391 23.3464 131.084 23.6539 131.084 24.0335V27.3654C131.084 27.745 131.391 28.0525 131.771 28.0525H135.1C135.479 28.0525 135.79 27.745 135.79 27.3654V24.0335C135.79 23.6539 135.479 23.3464 135.1 23.3464Z"
            fill="#3F3D56" />
        <path
            d="M150.944 23.5034H147.615C147.235 23.5034 146.928 23.8109 146.928 24.1905V27.5224C146.928 27.902 147.235 28.2095 147.615 28.2095H150.944C151.323 28.2095 151.634 27.902 151.634 27.5224V24.1905C151.634 23.8109 151.323 23.5034 150.944 23.5034Z"
            fill="#3F3D56" />
        <path
            d="M100.77 24.7708H74.1622C73.6978 24.7708 73.3245 25.1472 73.3245 25.6084C73.3245 26.0696 73.6978 26.4461 74.1622 26.4461H100.77C101.231 26.4461 101.608 26.0696 101.608 25.6084C101.608 25.1473 101.231 24.7708 100.77 24.7708Z"
            fill="#3F3D56" />
    </g>
    <defs>
        <clipPath id="clip0_583_4013">
            <rect width="184" height="206.846" fill="white" />
        </clipPath>
    </defs>
</svg>