<svg width="24" height="24" viewBox="0 0 24 24" fill="none" xmlns="http://www.w3.org/2000/svg">
<rect width="24" height="24" fill="#F5F5F5"/>
<path d="M-3430 -4707C-3430 -4708.1 -3429.1 -4709 -3428 -4709H2864C2865.1 -4709 2866 -4708.1 2866 -4707V3192C2866 3193.1 2865.1 3194 2864 3194H-3428C-3429.1 3194 -3430 3193.1 -3430 3192V-4707Z" fill="#EBEBEB"/>
<path d="M-3428 -4708H2864V-4710H-3428V-4708ZM2865 -4707V3192H2867V-4707H2865ZM2864 3193H-3428V3195H2864V3193ZM-3429 3192V-4707H-3431V3192H-3429ZM-3428 3193C-3428.55 3193 -3429 3192.55 -3429 3192H-3431C-3431 3193.66 -3429.66 3195 -3428 3195V3193ZM2865 3192C2865 3192.55 2864.55 3193 2864 3193V3195C2865.66 3195 2867 3193.66 2867 3192H2865ZM2864 -4708C2864.55 -4708 2865 -4707.55 2865 -4707H2867C2867 -4708.66 2865.66 -4710 2864 -4710V-4708ZM-3428 -4710C-3429.66 -4710 -3431 -4708.66 -3431 -4707H-3429C-3429 -4707.55 -3428.55 -4708 -3428 -4708V-4710Z" fill="black" fill-opacity="0.1"/>
<g clip-path="url(#clip0_1_2)">
<rect width="1440" height="902" transform="translate(-1139 -112)" fill="#F3F7F9"/>
<rect x="-327.5" y="-37.5" width="426" height="43" rx="3.5" fill="white"/>
<rect x="-327.5" y="-37.5" width="426" height="43" rx="3.5" stroke="#979CA1"/>
<rect x="-1139" y="-112" width="1440" height="1024" fill="black" fill-opacity="0.43"/>
<g filter="url(#filter0_dd_1_2)">
<rect x="-850" y="-26" width="900" height="706" rx="12" fill="white"/>
<path d="M18 6L6 18M6 6L18 18" stroke="#667085" stroke-width="2" stroke-linecap="round" stroke-linejoin="round"/>
</g>
</g>
<defs>
<filter id="filter0_dd_1_2" x="-870" y="-26" width="940" height="746" filterUnits="userSpaceOnUse" color-interpolation-filters="sRGB">
<feFlood flood-opacity="0" result="BackgroundImageFix"/>
<feColorMatrix in="SourceAlpha" type="matrix" values="0 0 0 0 0 0 0 0 0 0 0 0 0 0 0 0 0 0 127 0" result="hardAlpha"/>
<feMorphology radius="4" operator="erode" in="SourceAlpha" result="effect1_dropShadow_1_2"/>
<feOffset dy="8"/>
<feGaussianBlur stdDeviation="4"/>
<feColorMatrix type="matrix" values="0 0 0 0 0.0627451 0 0 0 0 0.0941176 0 0 0 0 0.156863 0 0 0 0.04 0"/>
<feBlend mode="normal" in2="BackgroundImageFix" result="effect1_dropShadow_1_2"/>
<feColorMatrix in="SourceAlpha" type="matrix" values="0 0 0 0 0 0 0 0 0 0 0 0 0 0 0 0 0 0 127 0" result="hardAlpha"/>
<feMorphology radius="4" operator="erode" in="SourceAlpha" result="effect2_dropShadow_1_2"/>
<feOffset dy="20"/>
<feGaussianBlur stdDeviation="12"/>
<feColorMatrix type="matrix" values="0 0 0 0 0.0627451 0 0 0 0 0.0941176 0 0 0 0 0.156863 0 0 0 0.1 0"/>
<feBlend mode="normal" in2="effect1_dropShadow_1_2" result="effect2_dropShadow_1_2"/>
<feBlend mode="normal" in="SourceGraphic" in2="effect2_dropShadow_1_2" result="shape"/>
</filter>
<clipPath id="clip0_1_2">
<rect width="1440" height="902" fill="white" transform="translate(-1139 -112)"/>
</clipPath>
</defs>
</svg>
